<?xml version="1.0" encoding="utf-8"?>
<!-- Generator: Adobe Illustrator 19.0.0, SVG Export Plug-In . SVG Version: 6.00 Build 0)  -->
<svg version="1.1" id="Layer_1" xmlns="http://www.w3.org/2000/svg" xmlns:xlink="http://www.w3.org/1999/xlink" x="0px" y="0px"
	 viewBox="0 0 70 70" style="enable-background:new 0 0 70 70;" xml:space="preserve">
<style type="text/css">
	.st0{fill:#52C8E8;}
	.st1{fill:#D9E028;}
	.st2{fill:#2B98D4;}

	.spin{
		-webkit-animation: rotation 2s infinite linear;
		   -moz-animation: rotation 2s infinite linear;
			 -o-animation: rotation 2s infinite linear;
				animation: rotation 2s infinite linear;
		-webkit-transform-origin: center;
		   -moz-transform-origin: center;
			 -o-transform-origin: center;
				transform-origin: center;
	}

	@keyframes rotation {
		from {
			transform: rotate(0deg);
		}
		to {
			transform: rotate(359deg);
		}
	}

	@-webkit-keyframes rotation {
		from {
			-webkit-transform: rotate(0deg);
		}
		to {
			-webkit-transform: rotate(359deg);
		}
	}
	@-moz-keyframes rotation {
		from {
			-moz-transform: rotate(0deg);
		}
		to {
			-moz-transform: rotate(359deg);
		}
	}
	@-o-keyframes rotation {
		from {
			-o-transform: rotate(0deg);
		}
		to {
			-o-transform: rotate(359deg);
		}
	}
</style>
<g>
	<g>
		<path class="st0" d="M57.9,27.6c-0.6-2-1.6-3.8-2.6-5.6c-0.9-1.3-1.9-2.6-3-3.7c-2.3-2.4-5-4.3-8.1-5.6c-2.9-1.2-6-1.9-9.2-1.8
			c-1.3-0.1-2.5,0.1-3.8,0.3c-4.1,0.7-7.8,2.3-11,4.8c-4.2,3.3-7,7.5-8.5,12.6c-1.1,4-1.2,8-0.3,12c0.6,2.7,1.7,5.2,3.2,7.5
			c0.8,1.3,1.9,2.5,2.9,3.7c2.2,2.2,4.7,4,7.6,5.3c3.1,1.4,6.4,2.2,9.9,2.1c0.1,0,0.3,0,0.4,0c3.7-0.1,7.2-0.9,10.5-2.6
			c3.8-1.9,6.9-4.7,9.3-8.3c2-3.1,3.2-6.4,3.7-10C59.4,34.7,59,31.1,57.9,27.6z M40.9,15.7c0.1-0.1,0.2,0,0.3,0
			c2.4,0.7,4.6,1.9,6.6,3.5c-1.6,0.7-3,1.2-4.6,1.6c-0.4,0.1-0.6,0-0.7-0.4c-0.4-1.5-0.9-3-1.6-4.4C40.9,15.9,40.8,15.8,40.9,15.7z
			 M31.2,21.1c0.6-1.9,1.2-3.7,2.3-5.3c0.4-0.6,0.8-1,1.5-1.2v0c1.4,0.5,1.9,1.8,2.5,3c0.6,1.1,0.9,2.3,1.3,3.5
			c0.2,0.6-0.1,0.7-0.6,0.7c-1.1,0-2.2,0.2-3.3,0.1c-1.1,0-2.2,0-3.3-0.1C31.2,21.8,31,21.6,31.2,21.1z M14.8,32.4
			c0.3-2.6,1.1-5,2.4-7.3c0.5-1,1.2-1.9,1.9-2.8c0.2-0.2,0.3-0.3,0.6-0.1c1.6,0.8,3.2,1.4,4.9,2c0.4,0.2,0.9,0.3,1.3,0.3
			c0.6,0.1,0.7,0.4,0.6,0.9c-0.2,1-0.3,2.1-0.4,3.1c-0.1,1.3-0.2,2.5-0.2,3.8c0,1,0,0.9-1,0.9c-1.5,0-3.1-0.2-4.6-0.2
			c-1.6,0-3.2,0-4.8,0C14.7,33,14.7,33.2,14.8,32.4z M19,47.8c-2-2.6-3.4-5.6-4-8.8c-0.1-0.5-0.1-1-0.2-1.5
			c-0.1-0.4,0.1-0.5,0.4-0.5c3.4,0,6.8,0,10.1,0c0.3,0,0.4,0.1,0.5,0.4c0.2,0.9,0.1,1.9,0.2,2.8c0.1,1.6,0.4,3.3,0.6,4.9
			c0,0.1,0,0.1,0.1,0.2c0,0.2-0.2,0.3-0.4,0.3c-2.3,0.6-4.4,1.3-6.5,2.4C19.3,48.2,19.1,48,19,47.8z M29.2,54.6
			c-1.5-0.2-2.8-1-4.2-1.7c-0.9-0.5-1.7-1-2.5-1.6c-0.3-0.3-0.3-0.4,0-0.5c1.4-0.6,2.8-1.1,4.3-1.5c0.3-0.1,0.4-0.1,0.5,0.2
			c0.4,1.7,1,3.3,1.8,4.9C29.2,54.5,29.2,54.5,29.2,54.6C29.2,54.6,29.2,54.6,29.2,54.6C29.2,54.6,29.2,54.6,29.2,54.6z M27.4,20.7
			C27.4,21,27.2,21,27,21c-1.5-0.4-3-1-4.4-1.6c-0.2-0.1-0.4-0.2-0.1-0.4c2-1.6,4.3-2.7,6.9-3.5C28.5,17.2,27.9,19,27.4,20.7z
			 M38.7,49.3c-0.5,1.8-1.2,3.5-2.2,5.1c-0.4,0.6-0.9,1-1.5,1.2c-1.1-0.3-1.6-1.2-2.1-2.1c-0.8-1.4-1.3-2.9-1.8-4.4
			c-0.2-0.5,0-0.7,0.5-0.7c1.1-0.1,2.2-0.1,3.3-0.1c0,0,0,0,0,0c1,0,2,0.1,3.1,0.1C38.9,48.5,39,48.5,38.7,49.3z M39.8,44.5
			c-0.1,0.4-0.3,0.3-0.5,0.3c-1.4-0.2-2.9-0.3-4.3-0.2c-1.3,0-2.6,0-3.9,0.2c-0.6,0.1-0.9,0-1-0.7c-0.1-1.3-0.3-2.6-0.4-4
			c-0.1-0.9-0.1-1.7-0.1-2.6c0-0.4,0.1-0.6,0.6-0.6c1.6,0,3.3,0,4.9,0c0,0,0,0,0,0c1.6,0,3.3,0,4.9,0c0.5,0,0.6,0.1,0.6,0.6
			C40.4,39.9,40.1,42.2,39.8,44.5z M39.9,33.3c-1.6,0-3.3,0-4.9,0c-1.6,0-3.3,0-4.9,0c-0.4,0-0.6,0-0.6-0.5c0-2.4,0.2-4.7,0.6-7
			c0.1-0.3,0.2-0.3,0.5-0.3c1.5,0.1,2.9,0.3,4.4,0.3v0c1.3,0,2.6,0,3.9-0.2c0.5-0.1,0.9-0.1,1,0.7c0.1,1.4,0.4,2.8,0.4,4.3
			c0,0.8,0.2,1.5,0.1,2.3C40.4,33.2,40.3,33.3,39.9,33.3z M43.9,53.4c-0.9,0.4-1.7,0.8-2.7,1.1c-0.1,0-0.2,0.1-0.3,0
			c-0.2-0.1,0-0.3,0.1-0.4c0.7-1.4,1.2-2.9,1.6-4.5c0.1-0.4,0.3-0.5,0.7-0.4c1.5,0.4,3,1,4.6,1.6C46.6,52,45.3,52.8,43.9,53.4z
			 M55.2,37.5c-0.4,3.8-1.9,7.1-4.1,10.1c-0.3,0.3-0.5,0.5-0.9,0.3c-2-1-4.1-1.7-6.3-2.3c-0.3-0.1-0.4-0.3-0.3-0.6
			c0.2-1,0.3-2.1,0.4-3.1c0-0.7,0.2-1.5,0.2-2.2c0.1-0.8,0.1-1.6,0.1-2.3c0-0.4,0.3-0.4,0.5-0.4c1.7,0,3.3,0,5,0c1.6,0,3.3,0,4.9,0
			C55.1,37,55.3,37,55.2,37.5z M54.8,33.3c-1.7,0-3.3,0-5,0c-1.6,0-3.3,0-4.9,0c-0.5,0-0.6-0.1-0.6-0.6c-0.1-2.5-0.3-4.9-0.7-7.4
			c-0.1-0.3,0-0.6,0.4-0.7c2.2-0.6,4.3-1.4,6.3-2.4c0.4-0.2,0.6,0,0.8,0.2c2.2,2.9,3.5,6.1,4.1,9.6c0.1,0.3,0,0.6,0.1,0.9
			C55.3,33.4,55,33.3,54.8,33.3z"/>
		<g class="spin">
			<path id="XMLID_53_" class="st1" d="M24.4,9.3c3.4-1.5,6.9-2.1,10.6-2.1c1.9,0.1,3.8,0.2,5.6,0.6C47,9.1,52.3,12.1,56.6,17
				c0.3,0.3,0.5,1,0.9,1c-1.8,0-3.5,0-5.1,0c1.1,1,2,2.6,3,3.9c2.4,0,4.7,0.1,7.1,0.1c0.3,0,0.5,0,0.5-0.4c0-3.4,0-6.8,0-10.2
				c0-0.4-0.1-0.4-0.5-0.4c-0.8,0-1.7,0-2.5,0c-0.6,0-0.9,0.1-0.8,0.8c0.1,0.9,0,1.8,0,2.8c-0.3-0.3-0.5-0.6-0.7-0.8
				c-2.2-2.4-4.8-4.4-7.7-6.1c-2.2-1.2-4.4-2.2-6.8-2.8c-1.4-0.4-2.8-1-4.3-1.2C38.9,3.4,38.2,4,37.5,3c-0.8,0-1.7,0-2.5,0
				c-0.9,0-1.7,0-2.6,0c-0.1,1-0.2,0.4-0.4,0.4C26.3,4,21,6,16.4,9.5C9.3,14.7,4.9,21.8,3.5,30.5c-0.1,0.7,0.5,1.4-0.5,2
				c0,0.9,0,1.7,0,2.6c1,0,2.3,0,3.4,0c0.4,0,0.5-0.1,0.5-0.5c0-1.5,0.2-3.1,0.5-4.6C9.5,20.3,15.2,13.3,24.4,9.3z"/>
			<path id="XMLID_52_" class="st1" d="M63.6,35.2c-0.4,0-0.6,0.1-0.6,0.5c0,1.6-0.2,3.2-0.5,4.8c-1.3,6.3-4.4,11.6-9.3,15.8
				c-3.4,2.9-7.2,4.9-11.5,5.9c-2.2,0.5-4.4,0.8-6.7,0.9c-1.7-0.1-3.5-0.2-5.2-0.5c-6-1.2-11.1-3.8-15.3-8.2c-0.7-0.7-1.4-1.3-2-2.3
				c1.7,0,3.4,0,5,0c-1-1-2-2.5-2.9-3.8c-2.3,0-4.7,0-7,0c-0.3,0-0.5,0-0.5,0.4c0,3.4,0,6.9,0,10.3c0,0.3,0.1,0.4,0.4,0.4
				c0.9,0,1.9,0,2.8,0c0.4,0,0.5-0.1,0.5-0.5c0-1,0-2,0-3.1c0.2,0.2,0.3,0.3,0.4,0.4c2.9,3.2,6.2,5.7,10.1,7.6
				c4.3,2.1,8.9,3.1,13.6,3.1c1.9,0.1,3.7-0.2,5.5-0.5c5-0.9,9.5-2.9,13.6-5.9c3.1-2.3,5.6-5.1,7.6-8.3c2.4-3.7,4.1-7.8,4.8-12.2
				c0.1-0.7-0.5-1.5,0.5-2.2c0-0.9,0-1.7,0-2.6C66,35.2,64.7,35.2,63.6,35.2z"/>
		</g>
	</g>
	<path id="XMLID_51_" class="st2" d="M49.8,33.3c-1.6,0-3.3,0-4.9,0c-0.5,0-0.6-0.1-0.6-0.6c-0.1-2.5-0.3-4.9-0.7-7.4
		c-0.1-0.3,0-0.6,0.4-0.7c2.2-0.6,4.3-1.4,6.3-2.4c0.4-0.2,0.6,0,0.8,0.2c2.2,2.9,3.5,6.1,4.1,9.6c0.1,0.3,0,0.6,0.1,0.9
		c0.1,0.4-0.3,0.3-0.5,0.3C53.1,33.3,51.5,33.3,49.8,33.3z"/>
	<path id="XMLID_50_" class="st2" d="M49.8,37c1.6,0,3.3,0,4.9,0c0.4,0,0.5,0,0.4,0.5c-0.4,3.8-1.9,7.1-4.1,10.1
		c-0.3,0.3-0.5,0.5-0.9,0.3c-2-1-4.1-1.7-6.3-2.3c-0.3-0.1-0.4-0.3-0.3-0.6c0.2-1,0.3-2.1,0.4-3.1c0-0.7,0.2-1.5,0.2-2.2
		c0.1-0.8,0.1-1.6,0.1-2.3c0-0.4,0.3-0.4,0.5-0.4C46.5,37,48.2,37,49.8,37z"/>
	<path id="XMLID_49_" class="st2" d="M35,33.3c-1.6,0-3.3,0-4.9,0c-0.4,0-0.6,0-0.6-0.5c0-2.4,0.2-4.7,0.6-7
		c0.1-0.3,0.2-0.3,0.5-0.3c1.5,0.1,2.9,0.3,4.4,0.3c1.3,0,2.6,0,3.9-0.2c0.5-0.1,0.9-0.1,1,0.7c0.1,1.4,0.4,2.8,0.4,4.3
		c0,0.8,0.2,1.5,0.1,2.3c0,0.4-0.1,0.6-0.6,0.6C38.2,33.3,36.6,33.3,35,33.3z"/>
	<path id="XMLID_48_" class="st2" d="M35,44.6c-1.3,0-2.6,0-3.9,0.2c-0.6,0.1-0.9,0-1-0.7c-0.1-1.3-0.3-2.6-0.4-4
		c-0.1-0.9-0.1-1.7-0.1-2.6c0-0.4,0.1-0.6,0.6-0.6c1.6,0,3.3,0,4.9,0c1.6,0,3.3,0,4.9,0c0.5,0,0.6,0.1,0.6,0.6
		c-0.1,2.3-0.3,4.6-0.6,6.9c-0.1,0.4-0.3,0.3-0.5,0.3C37.9,44.6,36.4,44.6,35,44.6z"/>
	<path id="XMLID_47_" class="st2" d="M35,21.9c-1.1,0-2.2,0-3.3-0.1c-0.5-0.1-0.7-0.2-0.5-0.7c0.6-1.9,1.2-3.7,2.3-5.3
		c0.4-0.6,0.8-1,1.5-1.2c1.4,0.5,1.9,1.8,2.5,3c0.6,1.1,0.9,2.3,1.3,3.5c0.2,0.6-0.1,0.7-0.6,0.7C37.2,21.8,36.1,22,35,21.9z"/>
	<path id="XMLID_46_" class="st2" d="M35,55.6c-1.1-0.3-1.6-1.2-2.1-2.1c-0.8-1.4-1.3-2.9-1.8-4.4c-0.2-0.5,0-0.7,0.5-0.7
		c1.1-0.1,2.2-0.1,3.3-0.1c1,0,2,0.1,3.1,0.1c0.8,0.1,0.9,0.1,0.7,0.9c-0.5,1.8-1.2,3.5-2.2,5.1C36.1,55,35.6,55.4,35,55.6z"/>
	<path id="XMLID_45_" class="st2" d="M47.8,19.2c-1.6,0.7-3,1.2-4.6,1.6c-0.4,0.1-0.6,0-0.7-0.4c-0.4-1.5-0.9-3-1.6-4.4
		c-0.1-0.1-0.2-0.2-0.1-0.4c0.1-0.1,0.2,0,0.3,0C43.6,16.4,45.8,17.6,47.8,19.2z"/>
	<path id="XMLID_44_" class="st2" d="M47.8,51c-1.2,1.1-2.5,1.8-3.8,2.5c-0.9,0.4-1.7,0.8-2.7,1.1c-0.1,0-0.2,0.1-0.3,0
		c-0.2-0.1,0-0.3,0.1-0.4c0.7-1.4,1.2-2.9,1.6-4.5c0.1-0.4,0.3-0.5,0.7-0.4C44.7,49.8,46.2,50.3,47.8,51z"/>
	<path id="XMLID_43_" class="st2" d="M20.2,33.3c-1.6,0-3.2,0-4.8,0c-0.8,0-0.7,0-0.7-0.8c0.3-2.6,1.1-5.1,2.4-7.4
		c0.5-1,1.2-1.9,1.9-2.8c0.2-0.2,0.3-0.3,0.6-0.1c1.6,0.8,3.2,1.4,4.9,2c0.4,0.2,0.9,0.3,1.3,0.3c0.6,0.1,0.7,0.4,0.6,0.9
		c-0.2,1-0.3,2.1-0.4,3.1c-0.1,1.3-0.2,2.5-0.2,3.8c0,1,0,1-1,1C23.3,33.3,21.8,33.3,20.2,33.3z"/>
	<path id="XMLID_42_" class="st2" d="M26.5,45.4c0,0.2-0.2,0.3-0.4,0.3c-2.3,0.6-4.4,1.3-6.5,2.4c-0.4,0.2-0.5,0-0.7-0.3
		c-2-2.6-3.4-5.6-4-8.8c-0.1-0.5-0.1-1-0.2-1.5c-0.1-0.4,0.1-0.5,0.4-0.5c3.4,0,6.8,0,10.1,0c0.3,0,0.4,0.1,0.5,0.4
		c0.2,0.9,0.1,1.9,0.2,2.8c0.1,1.6,0.4,3.3,0.6,4.9C26.5,45.2,26.5,45.3,26.5,45.4z"/>
	<path id="XMLID_41_" class="st2" d="M29.4,15.5c-0.9,1.8-1.5,3.5-1.9,5.3C27.4,21,27.2,21,27,21c-1.5-0.4-3-1-4.4-1.6
		c-0.2-0.1-0.4-0.2-0.1-0.4C24.5,17.4,26.7,16.2,29.4,15.5z"/>
	<path id="XMLID_40_" class="st2" d="M29.2,54.6c-1.5-0.2-2.8-1-4.2-1.7c-0.9-0.5-1.7-1-2.5-1.6c-0.3-0.3-0.3-0.4,0-0.5
		c1.4-0.6,2.8-1.1,4.3-1.5c0.3-0.1,0.4-0.1,0.5,0.2c0.4,1.7,1,3.3,1.8,4.9C29.2,54.5,29.2,54.5,29.2,54.6L29.2,54.6z"/>
</g>
<g id="XMLID_67_">
</g>
<g id="XMLID_68_">
</g>
<g id="XMLID_69_">
</g>
<g id="XMLID_70_">
</g>
<g id="XMLID_71_">
</g>
<g id="XMLID_72_">
</g>
</svg>
