<?xml version="1.0" encoding="utf-8"?>
<!-- Generator: Adobe Illustrator 19.0.0, SVG Export Plug-In . SVG Version: 6.00 Build 0)  -->
<svg version="1.1" id="Layer_1" xmlns="http://www.w3.org/2000/svg" xmlns:xlink="http://www.w3.org/1999/xlink" x="0px" y="0px"
	 viewBox="0 0 570 120" style="enable-background:new 0 0 570 120;" xml:space="preserve">
<style type="text/css">
	.st0{fill:#FFFFFF;}
</style>
<g>
	<g>
		<g id="XMLID_758_">
			<path id="XMLID_840_" class="st0" d="M80.3,55.2c-3.6,3.3-7.8,5-12.5,5c-3.1,0-6.1-0.6-8.8-1.8c-2.8-1.2-5.2-2.8-7.2-5
				c-2.1-2.1-3.7-4.7-4.9-7.7c-1.2-3-1.8-6.3-1.8-9.9c0-3.3,0.6-6.3,1.8-9.2c1.2-2.9,2.9-5.4,5-7.5c2.1-2.1,4.6-3.8,7.5-5.1
				c2.9-1.2,6-1.9,9.4-1.9c4.4,0,8.3,0.9,11.6,2.8c3.3,1.8,5.8,4.4,7.4,7.6l-8.1,6.1c-1.1-2.1-2.6-3.8-4.6-5c-2-1.2-4.2-1.8-6.6-1.8
				c-1.8,0-3.5,0.4-5,1.1c-1.5,0.7-2.8,1.8-3.8,3.1c-1.1,1.3-1.9,2.8-2.5,4.6c-0.6,1.7-0.9,3.6-0.9,5.6c0,2,0.3,3.9,0.9,5.7
				c0.6,1.7,1.5,3.2,2.6,4.5c1.1,1.3,2.4,2.3,4,3c1.5,0.7,3.2,1.1,5.1,1.1c4.3,0,8.1-2,11.6-5.9v-1.5h-9.2v-7.9h18.3v24.8h-9.1V55.2
				z"/>
			<path id="XMLID_837_" class="st0" d="M110.5,60.6c-3,0-5.6-0.5-8-1.5c-2.3-1-4.3-2.3-5.9-4c-1.6-1.7-2.8-3.6-3.6-5.8
				c-0.8-2.2-1.2-4.5-1.2-6.9s0.4-4.7,1.2-6.9c0.8-2.2,2-4.1,3.6-5.8c1.6-1.7,3.6-3,5.9-4c2.3-1,5-1.5,8-1.5c3,0,5.6,0.5,7.9,1.5
				c2.3,1,4.3,2.3,5.9,4c1.6,1.7,2.8,3.6,3.7,5.8c0.8,2.2,1.3,4.5,1.3,6.9s-0.4,4.7-1.2,6.9c-0.8,2.2-2,4.1-3.6,5.8
				c-1.6,1.7-3.6,3-5.9,4C116.1,60.1,113.4,60.6,110.5,60.6z M102.6,42.4c0,2.8,0.7,5,2.2,6.6c1.5,1.7,3.3,2.5,5.6,2.5
				c1.1,0,2.1-0.2,3.1-0.7c0.9-0.4,1.7-1.1,2.4-1.9c0.7-0.8,1.2-1.8,1.6-2.9c0.4-1.1,0.6-2.4,0.6-3.7c0-2.8-0.7-5-2.2-6.6
				c-1.5-1.7-3.3-2.5-5.5-2.5c-1.1,0-2.1,0.2-3.1,0.7c-1,0.4-1.8,1.1-2.5,1.9c-0.7,0.8-1.2,1.8-1.6,2.9
				C102.8,39.8,102.6,41.1,102.6,42.4z"/>
			<path id="XMLID_835_" class="st0" d="M179.5,55.2c-3.6,3.3-7.8,5-12.5,5c-3.1,0-6.1-0.6-8.8-1.8c-2.8-1.2-5.2-2.8-7.2-5
				c-2.1-2.1-3.7-4.7-4.9-7.7c-1.2-3-1.8-6.3-1.8-9.9c0-3.3,0.6-6.3,1.8-9.2c1.2-2.9,2.9-5.4,5-7.5c2.1-2.1,4.6-3.8,7.5-5.1
				c2.9-1.2,6-1.9,9.4-1.9c4.4,0,8.3,0.9,11.6,2.8c3.3,1.8,5.8,4.4,7.4,7.6l-8.1,6.1c-1.1-2.1-2.6-3.8-4.6-5c-2-1.2-4.2-1.8-6.6-1.8
				c-1.8,0-3.5,0.4-5,1.1c-1.5,0.7-2.8,1.8-3.8,3.1c-1.1,1.3-1.9,2.8-2.5,4.6c-0.6,1.7-0.9,3.6-0.9,5.6c0,2,0.3,3.9,0.9,5.7
				c0.6,1.7,1.5,3.2,2.6,4.5c1.1,1.3,2.4,2.3,4,3c1.5,0.7,3.2,1.1,5.1,1.1c4.3,0,8.1-2,11.6-5.9v-1.5h-9.2v-7.9h18.3v24.8h-9.1V55.2
				z"/>
			<path id="XMLID_833_" class="st0" d="M215.2,34c-2.6,0-4.9,0.5-7,1.3c-2.1,0.8-3.6,2-4.5,3.6v21h-10.7V24.8h9.8v7.1
				c1.2-2.4,2.7-4.2,4.6-5.5c1.9-1.3,3.9-2,6-2.1c0.5,0,0.8,0,1.1,0c0.2,0,0.4,0,0.7,0.1V34z"/>
			<path id="XMLID_830_" class="st0" d="M232.7,60.6c-2.9,0-5.6-0.5-7.9-1.4c-2.3-1-4.3-2.3-5.9-3.9c-1.6-1.6-2.9-3.6-3.7-5.7
				c-0.8-2.2-1.3-4.4-1.3-6.8c0-2.5,0.4-4.9,1.3-7.2c0.8-2.2,2.1-4.2,3.7-5.9c1.6-1.7,3.6-3,5.9-4c2.3-1,5-1.5,8-1.5
				c3,0,5.6,0.5,7.9,1.5c2.3,1,4.3,2.3,5.9,4c1.6,1.7,2.8,3.6,3.6,5.8c0.8,2.2,1.2,4.5,1.2,6.9c0,0.6,0,1.2-0.1,1.8
				c0,0.6-0.1,1.1-0.2,1.6h-25.9c0.2,2.4,1,4.2,2.6,5.4c1.5,1.2,3.3,1.8,5.2,1.8c1.6,0,3.1-0.4,4.5-1.1c1.4-0.8,2.4-1.8,2.9-3.1
				l9.1,2.5c-1.4,2.8-3.5,5-6.4,6.7C240.2,59.7,236.7,60.6,232.7,60.6z M240.1,39.1c-0.2-2.2-1-4-2.4-5.3c-1.4-1.3-3.1-1.9-5.1-1.9
				c-2.1,0-3.8,0.7-5.2,2c-1.4,1.3-2.1,3.1-2.4,5.2H240.1z"/>
			<path id="XMLID_827_" class="st0" d="M271,60.6c-2.9,0-5.6-0.5-7.9-1.4c-2.3-1-4.3-2.3-5.9-3.9c-1.6-1.6-2.9-3.6-3.7-5.7
				c-0.8-2.2-1.3-4.4-1.3-6.8c0-2.5,0.4-4.9,1.3-7.2c0.8-2.2,2.1-4.2,3.7-5.9c1.6-1.7,3.6-3,5.9-4c2.3-1,5-1.5,8-1.5
				c3,0,5.6,0.5,7.9,1.5c2.3,1,4.3,2.3,5.9,4c1.6,1.7,2.8,3.6,3.6,5.8c0.8,2.2,1.2,4.5,1.2,6.9c0,0.6,0,1.2-0.1,1.8
				c0,0.6-0.1,1.1-0.2,1.6h-25.9c0.2,2.4,1,4.2,2.6,5.4c1.5,1.2,3.3,1.8,5.2,1.8c1.6,0,3.1-0.4,4.5-1.1c1.4-0.8,2.4-1.8,2.9-3.1
				l9.1,2.5c-1.4,2.8-3.5,5-6.4,6.7C278.5,59.7,275.1,60.6,271,60.6z M278.4,39.1c-0.2-2.2-1-4-2.4-5.3c-1.4-1.3-3.1-1.9-5.1-1.9
				c-2.1,0-3.8,0.7-5.2,2c-1.4,1.3-2.1,3.1-2.4,5.2H278.4z"/>
			<path id="XMLID_825_" class="st0" d="M326.4,59.9h-10.7V40.2c0-2.3-0.4-4-1.3-5c-0.9-1-2-1.6-3.4-1.6c-0.8,0-1.5,0.2-2.3,0.5
				c-0.8,0.3-1.5,0.7-2.2,1.3c-0.7,0.6-1.3,1.2-1.9,2c-0.6,0.8-1,1.6-1.3,2.5v20.1h-10.7V24.8h9.6v5.9c1.3-2.1,3.1-3.7,5.5-4.8
				c2.4-1.1,5.1-1.7,8.1-1.7c2.3,0,4.1,0.4,5.5,1.2c1.4,0.8,2.4,1.9,3.2,3.2c0.8,1.3,1.3,2.7,1.5,4.3c0.2,1.6,0.4,3.1,0.4,4.5V59.9z
				"/>
			<path id="XMLID_823_" class="st0" d="M380.2,22.1h-14.4v37.8h-11V22.1h-14.5v-9.6h39.9V22.1z"/>
			<path id="XMLID_820_" class="st0" d="M391.7,60.6c-3,0-5.6-0.5-8-1.5c-2.3-1-4.3-2.3-5.9-4c-1.6-1.7-2.8-3.6-3.6-5.8
				c-0.8-2.2-1.2-4.5-1.2-6.9s0.4-4.7,1.2-6.9c0.8-2.2,2-4.1,3.6-5.8c1.6-1.7,3.6-3,5.9-4s5-1.5,8-1.5c3,0,5.6,0.5,7.9,1.5
				c2.3,1,4.3,2.3,5.9,4c1.6,1.7,2.8,3.6,3.7,5.8c0.8,2.2,1.3,4.5,1.3,6.9s-0.4,4.7-1.2,6.9c-0.8,2.2-2,4.1-3.6,5.8
				c-1.6,1.7-3.6,3-5.9,4C397.4,60.1,394.7,60.6,391.7,60.6z M383.9,42.4c0,2.8,0.7,5,2.2,6.6c1.5,1.7,3.3,2.5,5.6,2.5
				c1.1,0,2.1-0.2,3.1-0.7c0.9-0.4,1.7-1.1,2.4-1.9c0.7-0.8,1.2-1.8,1.6-2.9c0.4-1.1,0.6-2.4,0.6-3.7c0-2.8-0.7-5-2.2-6.6
				c-1.5-1.7-3.3-2.5-5.5-2.5c-1.1,0-2.1,0.2-3.1,0.7c-1,0.4-1.8,1.1-2.5,1.9c-0.7,0.8-1.2,1.8-1.6,2.9
				C384.1,39.8,383.9,41.1,383.9,42.4z"/>
			<path id="XMLID_817_" class="st0" d="M428.3,60.6c-2.4,0-4.6-0.5-6.6-1.4c-2-0.9-3.8-2.2-5.2-3.8c-1.5-1.6-2.6-3.6-3.4-5.8
				c-0.8-2.2-1.2-4.6-1.2-7.2c0-2.5,0.4-4.9,1.1-7.1c0.8-2.2,1.8-4.2,3.2-5.8c1.4-1.6,3-2.9,4.9-3.8s4-1.4,6.2-1.4
				c2.4,0,4.7,0.6,6.6,1.7c2,1.2,3.5,2.7,4.6,4.7V11.1h10.7v36.7c0,1.1,0.2,1.8,0.5,2.2c0.3,0.4,0.9,0.7,1.8,0.8v9
				c-1,0.2-1.8,0.4-2.5,0.4s-1.4,0.1-2,0.1c-1.9,0-3.4-0.4-4.5-1.2c-1.2-0.8-1.8-1.9-2-3.4l-0.2-1.8c-1.2,2.2-2.9,3.8-5,4.9
				C433,60,430.7,60.6,428.3,60.6z M431.2,51.6c1.5,0,2.9-0.4,4.2-1.3c1.4-0.9,2.4-2.1,3.1-3.6v-7.3c-0.7-1.8-1.7-3.2-3.2-4.4
				c-1.5-1.1-3-1.7-4.6-1.7c-1.2,0-2.2,0.3-3.2,0.8c-1,0.5-1.8,1.2-2.5,2c-0.7,0.8-1.3,1.8-1.6,2.9c-0.4,1.1-0.6,2.3-0.6,3.5
				c0,1.3,0.2,2.5,0.6,3.6c0.4,1.1,1,2.1,1.7,2.9c0.7,0.8,1.6,1.4,2.7,1.9C428.9,51.3,430,51.6,431.2,51.6z"/>
			<path id="XMLID_814_" class="st0" d="M465.4,60.6c-1.7,0-3.4-0.3-4.8-0.8c-1.5-0.6-2.8-1.3-3.8-2.3c-1.1-1-1.9-2.2-2.5-3.5
				c-0.6-1.4-0.9-2.8-0.9-4.4c0-1.7,0.4-3.3,1.1-4.7c0.7-1.4,1.8-2.6,3.1-3.7c1.3-1,2.9-1.8,4.7-2.4c1.8-0.6,3.9-0.9,6.1-0.9
				c1.5,0,2.9,0.1,4.3,0.4c1.4,0.2,2.6,0.6,3.6,1.1v-1.6c0-4.1-2.3-6.1-7-6.1c-1.9,0-3.7,0.3-5.5,1c-1.7,0.6-3.6,1.6-5.5,2.9
				l-3.1-6.7c2.3-1.5,4.7-2.6,7.2-3.4c2.5-0.8,5.1-1.1,7.9-1.1c5.3,0,9.4,1.2,12.3,3.7c2.9,2.5,4.3,6.1,4.3,11v9
				c0,1.1,0.2,1.8,0.5,2.2c0.3,0.4,0.9,0.7,1.8,0.8v9c-0.9,0.2-1.8,0.4-2.5,0.4c-0.8,0.1-1.4,0.1-2.1,0.1c-2,0-3.5-0.4-4.5-1.2
				c-1-0.8-1.7-1.9-1.9-3.3l-0.2-1.6c-1.6,2-3.4,3.5-5.6,4.6C470.1,60,467.8,60.6,465.4,60.6z M468.5,52.9c1.2,0,2.3-0.2,3.4-0.6
				c1.1-0.4,2-0.9,2.7-1.6c1-0.8,1.5-1.6,1.5-2.5v-3.3c-0.9-0.4-1.9-0.6-3-0.8c-1.1-0.2-2.1-0.3-3-0.3c-2,0-3.6,0.4-4.8,1.3
				c-1.3,0.9-1.9,2-1.9,3.5c0,1.3,0.5,2.3,1.5,3.2C465.8,52.5,467,52.9,468.5,52.9z"/>
			<path id="XMLID_812_" class="st0" d="M492,65.2c0.9,0.3,1.7,0.5,2.5,0.7c0.8,0.1,1.5,0.2,2.1,0.2c1.3,0,2.3-0.4,3-1.3
				c0.7-0.9,1.4-2.5,1.9-4.8l-13.4-35.1h11l8.1,25.9l7-25.9h10L511,65.6c-0.9,2.9-2.6,5.2-5,7s-5.3,2.7-8.5,2.7
				c-0.9,0-1.8-0.1-2.7-0.2c-0.9-0.2-1.8-0.4-2.8-0.8V65.2z"/>
			<path id="XMLID_810_" class="st0" d="M524.5,68.9l2.1-9.2h-3.3V49h9v10.8l-3.1,9.2H524.5z"/>
			<path id="XMLID_808_" class="st0" d="M75.3,104.4c-2.1,0-4-0.3-5.7-1c-1.7-0.7-3.2-1.7-4.5-3l2.4-3.1c0.3,0.5,0.7,0.9,1.2,1.4
				c0.5,0.5,1.2,0.9,1.9,1.2c0.7,0.4,1.6,0.7,2.5,0.9c0.9,0.2,1.9,0.3,2.9,0.3c2.2,0,3.9-0.4,5.1-1.3s1.9-2.1,1.9-3.8
				c0-0.6-0.2-1.2-0.5-1.7c-0.3-0.5-0.7-0.9-1.3-1.2c-0.6-0.4-1.3-0.7-2.1-0.9c-0.8-0.3-1.8-0.5-2.8-0.8c-1.1-0.3-2.1-0.6-2.9-1
				c-0.9-0.3-1.6-0.8-2.2-1.2c-0.6-0.5-1-1-1.3-1.6c-0.3-0.6-0.5-1.4-0.5-2.2c0-1.6,0.3-2.9,0.9-4.2c0.6-1.2,1.5-2.2,2.5-3.1
				c1.1-0.8,2.3-1.5,3.8-1.9c1.4-0.5,3-0.7,4.6-0.7c1.8,0,3.4,0.3,4.8,0.9c1.4,0.6,2.5,1.4,3.5,2.4l-2.3,2.9c-0.2-0.4-0.5-0.7-1-1.1
				c-0.4-0.3-0.9-0.7-1.5-0.9c-0.6-0.3-1.2-0.5-1.9-0.7c-0.7-0.2-1.5-0.3-2.3-0.3c-2.4,0-4.2,0.5-5.3,1.6c-1.1,1-1.7,2.4-1.7,3.9
				c0,0.6,0.1,1.1,0.4,1.5c0.3,0.4,0.6,0.8,1.1,1.1c0.5,0.3,1.1,0.6,1.9,0.8c0.7,0.3,1.6,0.5,2.6,0.7c1.2,0.3,2.2,0.6,3.1,1
				c0.9,0.4,1.7,0.8,2.4,1.3c0.7,0.5,1.2,1.1,1.5,1.8c0.4,0.7,0.5,1.5,0.5,2.5c0,1.6-0.3,3-0.9,4.2c-0.6,1.2-1.5,2.2-2.5,3
				c-1.1,0.8-2.3,1.4-3.7,1.7C78.5,104.2,76.9,104.4,75.3,104.4z"/>
			<path id="XMLID_805_" class="st0" d="M96.8,104.6c-1.2,0-2.2-0.2-3.2-0.7c-0.9-0.5-1.7-1.1-2.3-1.9c-0.6-0.8-1.1-1.7-1.5-2.8
				c-0.3-1.1-0.5-2.2-0.5-3.4c0-1.7,0.3-3.3,1-4.9c0.6-1.6,1.5-3,2.5-4.2c1.1-1.2,2.3-2.2,3.7-2.9c1.4-0.7,2.9-1.1,4.4-1.1
				c1.6,0,2.9,0.4,4,1.3c1.1,0.9,1.8,1.9,2.3,3.2l0.9-4.2h3.5l-3.5,16.6c0,0.1,0,0.2-0.1,0.3c0,0.1,0,0.2,0,0.2
				c0,0.5,0.3,0.7,0.9,0.8l-0.6,3.1c-0.3,0.1-0.6,0.1-0.8,0.1c-0.2,0-0.4,0-0.6,0c-0.7,0-1.3-0.2-1.7-0.5c-0.4-0.3-0.6-0.8-0.6-1.3
				c0-0.4,0.1-1.2,0.4-2.3c-1,1.4-2.3,2.4-3.8,3.2C99.7,104.2,98.2,104.6,96.8,104.6z M98.3,101.5c0.6,0,1.2-0.1,1.9-0.4
				c0.7-0.2,1.4-0.6,2-1c0.7-0.4,1.3-0.9,1.8-1.5c0.5-0.6,0.9-1.2,1.2-1.8l1.2-6c-0.1-0.7-0.3-1.3-0.6-1.9s-0.7-1.1-1.2-1.6
				c-0.5-0.4-1-0.8-1.6-1c-0.6-0.3-1.2-0.4-1.8-0.4c-1.1,0-2.2,0.3-3.2,0.8c-1,0.5-1.9,1.3-2.6,2.2s-1.4,1.9-1.8,3
				C93.3,93,93,94.2,93,95.3c0,0.9,0.1,1.7,0.4,2.4s0.6,1.4,1.1,2c0.5,0.6,1,1,1.7,1.3C96.8,101.4,97.5,101.5,98.3,101.5z"/>
			<path id="XMLID_803_" class="st0" d="M114.2,83.2h3.7l2.4,17.9c2.2-3,4-6,5.6-8.9s2.7-5.9,3.5-8.9h3.4c-1,3.5-2.4,7-4.4,10.5
				c-1.9,3.5-4.3,7-7,10.5h-3.8L114.2,83.2z"/>
			<path id="XMLID_800_" class="st0" d="M140.3,104.6c-1.3,0-2.5-0.2-3.5-0.7c-1-0.5-1.9-1.1-2.6-1.9c-0.7-0.8-1.2-1.7-1.6-2.8
				c-0.4-1.1-0.5-2.2-0.5-3.5c0-1.7,0.3-3.3,1-4.9c0.6-1.6,1.5-2.9,2.7-4.1c1.2-1.2,2.5-2.1,4.1-2.8c1.6-0.7,3.2-1.1,5.1-1.1
				c2.1,0,3.7,0.5,5,1.4c1.3,1,1.9,2.4,1.9,4.2c0,2.1-0.9,3.8-2.8,4.8c-1.9,1.1-4.7,1.6-8.6,1.6c-0.6,0-1.4,0-2.1,0
				c-0.8,0-1.6-0.1-2.5-0.2c0,0.2,0,0.3,0,0.5c0,0.2,0,0.3,0,0.4c0,0.8,0.1,1.6,0.3,2.4c0.2,0.8,0.5,1.4,1,2c0.4,0.6,1,1,1.6,1.4
				c0.7,0.3,1.4,0.5,2.3,0.5c1.2,0,2.4-0.3,3.6-0.9c1.2-0.6,2.1-1.5,2.8-2.5l2.9,0.8c-0.5,0.8-1.1,1.5-1.8,2.1
				c-0.7,0.6-1.5,1.2-2.4,1.7c-0.9,0.5-1.8,0.8-2.7,1.1C142.3,104.4,141.3,104.6,140.3,104.6z M144.5,85.5c-1.2,0-2.2,0.2-3.1,0.6
				c-0.9,0.4-1.7,0.9-2.4,1.5c-0.7,0.6-1.3,1.4-1.7,2.2c-0.5,0.8-0.8,1.7-1.1,2.5c0.8,0.1,1.6,0.1,2.3,0.2c0.7,0,1.4,0,2,0
				c1.5,0,2.8-0.1,3.8-0.3c1-0.2,1.9-0.5,2.5-0.8c0.6-0.4,1.1-0.8,1.4-1.3c0.3-0.5,0.4-1,0.4-1.6c0-1-0.4-1.8-1.1-2.2
				C146.8,85.7,145.8,85.5,144.5,85.5z"/>
			<path id="XMLID_798_" class="st0" d="M166.8,104.4c-1.1,0-2-0.3-2.7-0.8c-0.7-0.5-1.1-1.3-1.1-2.4c0-0.4,0-0.8,0.1-1.2l3-14.1
				h-2.7l0.6-2.8h2.7l1.5-7h3.5l-1.5,7h4.5l-0.6,2.8h-4.4l-2.8,13c-0.1,0.3-0.1,0.5-0.1,0.6c0,0.6,0.2,1,0.5,1.2
				c0.3,0.3,0.8,0.4,1.3,0.4c0.7,0,1.3-0.1,1.9-0.3c0.6-0.2,1-0.4,1.2-0.5l0.2,2.8c-0.5,0.3-1.2,0.7-2.1,0.9
				C168.9,104.3,167.9,104.4,166.8,104.4z"/>
			<path id="XMLID_796_" class="st0" d="M180.3,74.9h3.5l-2.7,12.8c1.1-1.5,2.4-2.7,4-3.6c1.5-0.9,3.1-1.3,4.7-1.3
				c1.8,0,3,0.5,3.7,1.4c0.7,1,1.1,2.2,1.1,3.8c0,1.2-0.1,2.3-0.4,3.6l-2.6,12.5H188l2.5-11.7c0.1-0.5,0.2-1,0.2-1.5
				c0.1-0.4,0.1-0.9,0.1-1.3c0-2.5-1-3.7-3.1-3.7c-0.6,0-1.3,0.1-2,0.4c-0.7,0.3-1.4,0.7-2,1.1s-1.3,1.1-1.9,1.7
				c-0.6,0.7-1.1,1.4-1.4,2.2l-2.7,12.6h-3.5L180.3,74.9z"/>
			<path id="XMLID_793_" class="st0" d="M205,104.6c-1.3,0-2.5-0.2-3.5-0.7c-1-0.5-1.9-1.1-2.6-1.9c-0.7-0.8-1.2-1.7-1.6-2.8
				c-0.4-1.1-0.5-2.2-0.5-3.5c0-1.7,0.3-3.3,1-4.9c0.6-1.6,1.5-2.9,2.7-4.1c1.2-1.2,2.5-2.1,4.1-2.8c1.6-0.7,3.2-1.1,5.1-1.1
				c2.1,0,3.7,0.5,5,1.4c1.3,1,1.9,2.4,1.9,4.2c0,2.1-0.9,3.8-2.8,4.8c-1.9,1.1-4.7,1.6-8.6,1.6c-0.6,0-1.4,0-2.1,0
				c-0.8,0-1.6-0.1-2.5-0.2c0,0.2,0,0.3,0,0.5c0,0.2,0,0.3,0,0.4c0,0.8,0.1,1.6,0.3,2.4c0.2,0.8,0.5,1.4,1,2c0.4,0.6,1,1,1.6,1.4
				c0.7,0.3,1.4,0.5,2.3,0.5c1.2,0,2.4-0.3,3.6-0.9c1.2-0.6,2.1-1.5,2.8-2.5l2.9,0.8c-0.5,0.8-1.1,1.5-1.8,2.1
				c-0.7,0.6-1.5,1.2-2.4,1.7c-0.9,0.5-1.8,0.8-2.7,1.1C206.9,104.4,206,104.6,205,104.6z M209.2,85.5c-1.2,0-2.2,0.2-3.1,0.6
				c-0.9,0.4-1.7,0.9-2.4,1.5c-0.7,0.6-1.3,1.4-1.7,2.2c-0.5,0.8-0.8,1.7-1.1,2.5c0.8,0.1,1.6,0.1,2.3,0.2c0.7,0,1.4,0,2,0
				c1.5,0,2.8-0.1,3.8-0.3c1-0.2,1.9-0.5,2.5-0.8c0.6-0.4,1.1-0.8,1.4-1.3c0.3-0.5,0.4-1,0.4-1.6c0-1-0.4-1.8-1.1-2.2
				C211.4,85.7,210.4,85.5,209.2,85.5z"/>
			<path id="XMLID_791_" class="st0" d="M226.6,83.2h3.7l3.3,17.9c0.9-1.1,1.7-2.2,2.4-3.3c0.8-1.1,1.5-2.2,2.2-3.3l-2.8-11.2h3.7
				l1.6,6.8c1.1-2.3,2-4.5,2.6-6.8h3.4c-0.5,1.8-1.2,3.7-2,5.6c-0.8,1.9-1.8,3.7-2.9,5.6l1.6,6.7c2.2-3,4-6,5.6-8.9s2.7-5.9,3.5-8.9
				h3.4c-1,3.5-2.4,7-4.4,10.5c-1.9,3.5-4.3,7-7,10.5h-3.8l-1.5-5.9c-1.4,2-2.8,3.9-4.5,5.9h-3.8L226.6,83.2z"/>
			<path id="XMLID_788_" class="st0" d="M263.2,104.6c-1.3,0-2.4-0.2-3.4-0.7c-1-0.5-1.8-1.1-2.5-1.9c-0.7-0.8-1.2-1.7-1.5-2.8
				c-0.3-1.1-0.5-2.2-0.5-3.4c0-1.7,0.3-3.3,1-4.9c0.7-1.6,1.6-2.9,2.7-4.1c1.2-1.2,2.5-2.2,4-2.9c1.5-0.7,3.2-1.1,4.9-1.1
				c1.3,0,2.4,0.2,3.4,0.7c1,0.5,1.9,1.1,2.5,1.9c0.7,0.8,1.2,1.7,1.6,2.8c0.4,1.1,0.5,2.2,0.5,3.4c0,1.7-0.3,3.3-1,4.8
				c-0.7,1.6-1.6,2.9-2.7,4.1c-1.2,1.2-2.5,2.2-4.1,2.9C266.6,104.2,264.9,104.6,263.2,104.6z M263.9,101.5c1,0,2.1-0.3,3.1-0.8
				c1-0.5,1.9-1.2,2.7-2c0.8-0.9,1.4-1.9,1.9-3c0.5-1.1,0.7-2.3,0.7-3.6c0-0.9-0.1-1.7-0.4-2.4c-0.2-0.8-0.6-1.4-1-1.9s-1-1-1.6-1.3
				c-0.6-0.3-1.3-0.5-2.1-0.5c-1,0-2,0.3-3,0.8s-1.9,1.2-2.7,2.1c-0.8,0.9-1.4,1.9-1.9,3c-0.5,1.2-0.7,2.4-0.7,3.6
				c0,0.9,0.1,1.7,0.4,2.4c0.2,0.8,0.6,1.4,1,1.9s1,1,1.6,1.3C262.4,101.4,263.1,101.5,263.9,101.5z"/>
			<path id="XMLID_786_" class="st0" d="M281.3,83.2h3.3l-1,4.9c1-1.4,2.2-2.6,3.5-3.5c1.3-0.9,2.6-1.4,3.9-1.4c0.2,0,0.4,0,0.6,0
				c0.2,0,0.3,0,0.4,0.1l-0.6,3.1c-1.7,0.1-3.3,0.5-4.7,1.4c-1.5,0.9-2.6,2-3.5,3.6l-2.7,12.9h-3.5L281.3,83.2z"/>
			<path id="XMLID_784_" class="st0" d="M294.6,104.4c-1.1,0-2-0.3-2.6-0.8c-0.6-0.5-0.9-1.3-0.9-2.3c0-0.2,0-0.4,0-0.6
				c0-0.2,0.1-0.4,0.1-0.6l5.3-25.2h3.5L295,98.7c0,0.1,0,0.3-0.1,0.4c0,0.1,0,0.2,0,0.4c0,1.2,0.6,1.7,1.8,1.7c0.3,0,0.6,0,1-0.1
				c0.4-0.1,0.8-0.2,1.2-0.3l-0.1,2.8c-0.6,0.2-1.3,0.4-2.1,0.6S295.2,104.4,294.6,104.4z"/>
			<path id="XMLID_781_" class="st0" d="M308.9,104.6c-1.2,0-2.2-0.2-3.2-0.7c-0.9-0.5-1.7-1.1-2.3-1.9c-0.6-0.8-1.1-1.7-1.5-2.8
				c-0.3-1.1-0.5-2.2-0.5-3.4c0-1.7,0.3-3.3,1-4.9c0.6-1.6,1.5-3,2.5-4.2c1.1-1.2,2.3-2.2,3.7-2.9c1.4-0.7,2.9-1.1,4.4-1.1
				c1.6,0,2.9,0.4,4,1.3c1.1,0.9,1.8,1.9,2.3,3.2l2.7-12.5h3.5l-5.3,25c0,0.1,0,0.2-0.1,0.3c0,0.1,0,0.2,0,0.2
				c0,0.5,0.3,0.7,0.9,0.8l-0.6,3.1c-0.3,0.1-0.6,0.1-0.8,0.1c-0.2,0-0.4,0-0.6,0c-0.8,0-1.3-0.2-1.7-0.5c-0.4-0.3-0.6-0.8-0.6-1.3
				c0-0.2,0-0.5,0.1-0.9c0.1-0.3,0.1-0.8,0.3-1.4c-1,1.4-2.3,2.4-3.8,3.2C311.8,104.2,310.3,104.6,308.9,104.6z M310.4,101.5
				c0.6,0,1.2-0.1,1.9-0.4c0.7-0.2,1.4-0.6,2-1s1.3-0.9,1.8-1.5c0.5-0.6,0.9-1.2,1.2-1.8l1.2-6c-0.1-0.7-0.3-1.3-0.6-1.9
				s-0.7-1.1-1.2-1.6c-0.5-0.4-1-0.8-1.6-1c-0.6-0.3-1.2-0.4-1.8-0.4c-1.1,0-2.2,0.3-3.2,0.8c-1,0.5-1.9,1.3-2.6,2.2s-1.4,1.9-1.8,3
				s-0.7,2.2-0.7,3.4c0,0.9,0.1,1.7,0.4,2.4c0.2,0.8,0.6,1.4,1.1,2c0.5,0.6,1,1,1.7,1.3C308.9,101.4,309.6,101.5,310.4,101.5z"/>
			<path id="XMLID_779_" class="st0" d="M338.8,104.4c-1.1,0-2-0.3-2.7-0.8c-0.7-0.5-1.1-1.3-1.1-2.4c0-0.4,0-0.8,0.1-1.2l3-14.1
				h-2.7l0.6-2.8h2.7l1.5-7h3.5l-1.5,7h4.5l-0.6,2.8h-4.4L339,99c-0.1,0.3-0.1,0.5-0.1,0.6c0,0.6,0.2,1,0.5,1.2
				c0.3,0.3,0.8,0.4,1.3,0.4c0.7,0,1.3-0.1,1.9-0.3c0.6-0.2,1-0.4,1.2-0.5l0.2,2.8c-0.5,0.3-1.2,0.7-2.1,0.9
				C340.9,104.3,339.9,104.4,338.8,104.4z"/>
			<path id="XMLID_776_" class="st0" d="M354.5,104.6c-1.3,0-2.4-0.2-3.4-0.7c-1-0.5-1.8-1.1-2.5-1.9s-1.2-1.7-1.5-2.8
				c-0.3-1.1-0.5-2.2-0.5-3.4c0-1.7,0.3-3.3,1-4.9c0.7-1.6,1.6-2.9,2.7-4.1c1.1-1.2,2.5-2.2,4-2.9c1.5-0.7,3.2-1.1,4.9-1.1
				c1.3,0,2.4,0.2,3.4,0.7c1,0.5,1.9,1.1,2.5,1.9s1.2,1.7,1.6,2.8c0.4,1.1,0.5,2.2,0.5,3.4c0,1.7-0.3,3.3-1,4.8
				c-0.7,1.6-1.6,2.9-2.7,4.1s-2.5,2.2-4.1,2.9C357.9,104.2,356.3,104.6,354.5,104.6z M355.2,101.5c1,0,2.1-0.3,3.1-0.8
				c1-0.5,1.9-1.2,2.7-2c0.8-0.9,1.4-1.9,1.9-3c0.5-1.1,0.7-2.3,0.7-3.6c0-0.9-0.1-1.7-0.4-2.4c-0.2-0.8-0.6-1.4-1-1.9s-1-1-1.6-1.3
				s-1.3-0.5-2.1-0.5c-1,0-2,0.3-3,0.8c-1,0.5-1.9,1.2-2.7,2.1c-0.8,0.9-1.4,1.9-1.9,3c-0.5,1.2-0.7,2.4-0.7,3.6
				c0,0.9,0.1,1.7,0.4,2.4c0.2,0.8,0.6,1.4,1,1.9c0.4,0.5,1,1,1.6,1.3C353.8,101.4,354.4,101.5,355.2,101.5z"/>
			<path id="XMLID_774_" class="st0" d="M372.7,83.2h3.2l-1,4.5c1.1-1.5,2.4-2.7,3.9-3.6c1.5-0.9,3-1.3,4.6-1.3
				c1.6,0,2.7,0.4,3.6,1.3c0.8,0.9,1.3,2.1,1.3,3.8c1.2-1.7,2.6-3,4-3.8c1.4-0.9,3-1.3,4.6-1.3c1.7,0,2.9,0.5,3.6,1.4
				c0.7,0.9,1,2.2,1,3.7c0,1.1-0.1,2.3-0.4,3.7l-2.7,12.5h-3.5l2.5-11.7c0.2-1.1,0.4-2.1,0.4-2.9c0-2.3-1-3.5-2.9-3.5
				c-0.7,0-1.3,0.1-2,0.4c-0.7,0.3-1.3,0.6-1.9,1.1c-0.6,0.5-1.2,1.1-1.7,1.8s-1,1.4-1.4,2.2l-2.6,12.6h-3.5l2.5-11.7
				c0.2-1.2,0.4-2.1,0.4-3c0-2.3-1-3.5-2.8-3.5c-1.3,0-2.6,0.5-3.9,1.5c-1.3,1-2.3,2.3-3.1,4l-2.7,12.6h-3.5L372.7,83.2z"/>
			<path id="XMLID_771_" class="st0" d="M411.6,104.6c-1.3,0-2.4-0.2-3.4-0.7c-1-0.5-1.8-1.1-2.5-1.9s-1.2-1.7-1.5-2.8
				c-0.3-1.1-0.5-2.2-0.5-3.4c0-1.7,0.3-3.3,1-4.9c0.7-1.6,1.6-2.9,2.7-4.1c1.1-1.2,2.5-2.2,4-2.9c1.5-0.7,3.2-1.1,4.9-1.1
				c1.3,0,2.4,0.2,3.4,0.7c1,0.5,1.9,1.1,2.5,1.9s1.2,1.7,1.6,2.8c0.4,1.1,0.5,2.2,0.5,3.4c0,1.7-0.3,3.3-1,4.8
				c-0.7,1.6-1.6,2.9-2.7,4.1s-2.5,2.2-4.1,2.9C415,104.2,413.3,104.6,411.6,104.6z M412.3,101.5c1,0,2.1-0.3,3.1-0.8
				c1-0.5,1.9-1.2,2.7-2c0.8-0.9,1.4-1.9,1.9-3c0.5-1.1,0.7-2.3,0.7-3.6c0-0.9-0.1-1.7-0.4-2.4c-0.2-0.8-0.6-1.4-1-1.9s-1-1-1.6-1.3
				s-1.3-0.5-2.1-0.5c-1,0-2,0.3-3,0.8c-1,0.5-1.9,1.2-2.7,2.1c-0.8,0.9-1.4,1.9-1.9,3c-0.5,1.2-0.7,2.4-0.7,3.6
				c0,0.9,0.1,1.7,0.4,2.4c0.2,0.8,0.6,1.4,1,1.9c0.4,0.5,1,1,1.6,1.3C410.8,101.4,411.5,101.5,412.3,101.5z"/>
			<path id="XMLID_769_" class="st0" d="M429.7,83.2h3.3l-1,4.9c1-1.4,2.2-2.6,3.5-3.5c1.3-0.9,2.6-1.4,3.9-1.4c0.2,0,0.4,0,0.6,0
				c0.2,0,0.3,0,0.4,0.1l-0.6,3.1c-1.7,0.1-3.3,0.5-4.7,1.4c-1.5,0.9-2.6,2-3.5,3.6l-2.7,12.9h-3.5L429.7,83.2z"/>
			<path id="XMLID_767_" class="st0" d="M443.1,83.2h3.3l-1,4.9c1-1.4,2.2-2.6,3.5-3.5c1.3-0.9,2.6-1.4,3.9-1.4c0.2,0,0.4,0,0.6,0
				c0.2,0,0.3,0,0.4,0.1l-0.6,3.1c-1.7,0.1-3.3,0.5-4.7,1.4c-1.5,0.9-2.6,2-3.5,3.6l-2.7,12.9h-3.5L443.1,83.2z"/>
			<path id="XMLID_764_" class="st0" d="M460.4,104.6c-1.3,0-2.4-0.2-3.4-0.7c-1-0.5-1.8-1.1-2.5-1.9s-1.2-1.7-1.5-2.8
				c-0.3-1.1-0.5-2.2-0.5-3.4c0-1.7,0.3-3.3,1-4.9c0.7-1.6,1.6-2.9,2.7-4.1c1.1-1.2,2.5-2.2,4-2.9c1.5-0.7,3.2-1.1,4.9-1.1
				c1.3,0,2.4,0.2,3.4,0.7c1,0.5,1.9,1.1,2.5,1.9s1.2,1.7,1.6,2.8c0.4,1.1,0.5,2.2,0.5,3.4c0,1.7-0.3,3.3-1,4.8
				c-0.7,1.6-1.6,2.9-2.7,4.1s-2.5,2.2-4.1,2.9C463.8,104.2,462.1,104.6,460.4,104.6z M461.1,101.5c1,0,2.1-0.3,3.1-0.8
				c1-0.5,1.9-1.2,2.7-2c0.8-0.9,1.4-1.9,1.9-3c0.5-1.1,0.7-2.3,0.7-3.6c0-0.9-0.1-1.7-0.4-2.4c-0.2-0.8-0.6-1.4-1-1.9s-1-1-1.6-1.3
				s-1.3-0.5-2.1-0.5c-1,0-2,0.3-3,0.8c-1,0.5-1.9,1.2-2.7,2.1c-0.8,0.9-1.4,1.9-1.9,3c-0.5,1.2-0.7,2.4-0.7,3.6
				c0,0.9,0.1,1.7,0.4,2.4c0.2,0.8,0.6,1.4,1,1.9c0.4,0.5,1,1,1.6,1.3C459.6,101.4,460.3,101.5,461.1,101.5z"/>
			<path id="XMLID_762_" class="st0" d="M475.1,83.2h3.7l3.3,17.9c0.9-1.1,1.7-2.2,2.4-3.3s1.5-2.2,2.2-3.3l-2.8-11.2h3.7l1.6,6.8
				c1.1-2.3,2-4.5,2.6-6.8h3.4c-0.5,1.8-1.2,3.7-2,5.6s-1.8,3.7-2.9,5.6l1.6,6.7c2.2-3,4-6,5.6-8.9s2.7-5.9,3.5-8.9h3.4
				c-1,3.5-2.4,7-4.4,10.5c-1.9,3.5-4.3,7-7,10.5h-3.8l-1.5-5.9c-1.4,2-2.8,3.9-4.5,5.9h-3.8L475.1,83.2z"/>
			<path id="XMLID_759_" class="st0" d="M504,104.2l1-5h3.5l-1,5H504z M506,94.5l4.1-19.1h3.5l-4.1,19.1H506z"/>
		</g>
	</g>
	<g>
		<path class="st0" d="M543.9,75.7c15.3,0.3,23.8,7.1,23.8,24.1v17.4h-20.9V96.6h8c0.6-7.3-3.7-11.9-12.6-12.8L543.9,75.7z"/>
	</g>
	<g>
		<path class="st0" d="M26.1,54.5C10.7,54.2,2.2,47.4,2.2,30.4V13h20.9v20.6h-8c-0.6,7.3,3.7,11.9,12.6,12.8L26.1,54.5z"/>
	</g>
</g>
<g id="XMLID_11_">
</g>
<g id="XMLID_14_">
</g>
<g id="XMLID_81_">
</g>
<g id="XMLID_165_">
</g>
<g id="XMLID_166_">
</g>
<g id="XMLID_167_">
</g>
</svg>
