<?xml version="1.0" encoding="utf-8"?>
<!-- Generator: Adobe Illustrator 19.0.0, SVG Export Plug-In . SVG Version: 6.00 Build 0)  -->
<svg version="1.1" id="Layer_1" xmlns="http://www.w3.org/2000/svg" xmlns:xlink="http://www.w3.org/1999/xlink" x="0px" y="0px"
	 viewBox="0 0 650 120" style="enable-background:new 0 0 650 120;" xml:space="preserve">
<style type="text/css">
	.st0{fill:none;}
	.st1{fill:#82BC00;}
	.st2{fill-rule:evenodd;clip-rule:evenodd;fill:none;stroke:#82BC00;stroke-width:2;stroke-linecap:round;stroke-linejoin:round;stroke-miterlimit:10;}

	.spin{
		-webkit-animation: rotation 2s infinite linear;
		   -moz-animation: rotation 2s infinite linear;
			 -o-animation: rotation 2s infinite linear;
				animation: rotation 2s infinite linear;
		-webkit-transform-origin: 47% 46%;
		   -moz-transform-origin: 47% 46%;
			 -o-transform-origin: 47% 46%;
				transform-origin: 47% 46%;
	}

	@keyframes rotation {
		from {
			transform: rotate(0deg);
		}
		to {
			transform: rotate(359deg);
		}
	}

	@-webkit-keyframes rotation {
		from {
			-webkit-transform: rotate(0deg);
		}
		to {
			-webkit-transform: rotate(359deg);
		}
	}
	@-moz-keyframes rotation {
		from {
			-moz-transform: rotate(0deg);
		}
		to {
			-moz-transform: rotate(359deg);
		}
	}
	@-o-keyframes rotation {
		from {
			-o-transform: rotate(0deg);
		}
		to {
			-o-transform: rotate(359deg);
		}
	}

	.tractor{
		-webkit-animation: slideRight 4s infinite linear;
		   -moz-animation: slideRight 4s infinite linear;
			 -o-animation: slideRight 4s infinite linear;
				animation: slideRight 4s infinite linear;
	}

	.clouds1{
		-webkit-animation: slideRightLess 3s infinite linear;
		   -moz-animation: slideRightLess 3s infinite linear;
			 -o-animation: slideRightLess 3s infinite linear;
				animation: slideRightLess 3s infinite linear;
	}

	@keyframes slideRight {
		from {
			transform: translateX(-15%);
		}
		50% {
			transform: translateX(0%);
		}
	}

	@-webkit-keyframes slideRight {
		from {
			-webkit-transform: translateX(-15%);
		}
		50% {
			-webkit-transform: translateX(0%);
		}
	}
	@-moz-keyframes slideRight {
		from {
			-moz-transform: translateX(-15%);
		}
		50% {
			-moz-transform: translateX(0%);
		}
	}
	@-o-keyframes slideRight {
		from {
			-o-transform: translateX(-15%);
		}
		50% {
			-o-transform: translateX(0%);
		}
	}


	@keyframes slideRightLess {
		from {
			transform: translateX(-7%);
		}
		50% {
			transform: translateX(0%);
		}
	}
	@-webkit-keyframes slideRightLess {
		from {
			-webkit-transform: translateX(-7%);
		}
		50% {
			-webkit-transform: translateX(0%);
		}
	}
	@-moz-keyframes slideRightLess {
		from {
			-moz-transform: translateX(-7%);
		}
		50% {
			-moz-transform: translateX(0%);
		}
	}
	@-o-keyframes slideRightLess {
		from {
			-o-transform: translateX(-7%);
		}
		50% {
			-o-transform: translateX(0%);
		}
	}
</style>
<g>
	<polygon id="XMLID_221_" class="st0" points="228.1,113.7 235.6,103.7 228.1,93.6 	"/>
	<polygon id="XMLID_220_" class="st0" points="244.2,91.7 228.7,91.7 236.5,102.1 	"/>
	<polygon id="XMLID_219_" class="st0" points="229.1,115.7 243.9,115.7 236.5,105.8 	"/>
	<polygon id="XMLID_218_" class="st0" points="245.1,113.7 245.1,93.6 237.6,103.7 	"/>
	<polygon id="XMLID_217_" class="st0" points="306.4,95.4 323.4,110 314.3,88.6 	"/>
	<polygon id="XMLID_216_" class="st0" points="247.1,113.7 254.6,103.7 247.1,93.6 	"/>
	<path class="st0" d="M271.1,74.3v-6.4c0-0.3,0.3-0.7,0.6-0.8c0.3-0.2,1-0.2,1.3-0.1l3.1,1.2v-3.9l-29.5-18.6l-29.5,18.6v3.9
		l2.7-1.2c0.3-0.1,0.6-0.1,0.9,0.1c0.3,0.2,0.4,0.5,0.4,0.8v6.5c0,0.4-0.2,0.7-0.5,0.9l-23.5,10.9v3.4l0.6-0.2
		c0.3-0.1,0.7,0,0.9,0.1c0.3,0.2,0.4,0.5,0.4,0.8v25.5h27V90.6c0,0,0-0.1,0-0.1c0,0,0,0,0,0c0,0,0,0,0,0c0-0.1-0.1,0.2-0.1,0.2h0.1
		v-0.6c0-0.1,0-0.3,0.1-0.4c0.1,0,0.1-0.1,0.1-0.1c0,0,0,0,0,0c0,0,0,0.1,0,0.1c0.1-0.1,0.2,0,0.4,0h19.5c0,0,0,0,0,0c0,0,0,0,0,0
		h19.5c0.1,0,0.3,0,0.4,0c0,0,0,0,0,0c0,0,0,0,0,0v-0.1c0,0,0.1,0.1,0.2,0.1c0.1,0.1,0.5,0.2,0.5,0.4c0,0,0.3,0,0.3,0c0,0,0,0,0,0
		c0,0.1,0,0.2,0,0.4c0,0,0,0,0,0c0,0,0,0,0,0c0,0,0,0.1,0,0.1v25.1h26V90.2c0-0.3,0.3-0.6,0.6-0.8c0.3-0.2,0.9-0.2,1.2-0.1l1.2,0.3
		v-3.4l-24.1-10.9C271.7,75.1,271.1,74.7,271.1,74.3z M253.1,77.7c0,0.6-0.4,1-1,1h-11c-0.6,0-1-0.4-1-1v-9c0-0.6,0.4-1,1-1h11
		c0.6,0,1,0.4,1,1V77.7z"/>
	<rect id="XMLID_213_" x="242.1" y="69.7" class="st0" width="9" height="7"/>
	<polygon id="XMLID_212_" class="st0" points="263.7,91.7 248.2,91.7 256,102.1 	"/>
	<polygon id="XMLID_211_" class="st0" points="248.6,115.7 263.4,115.7 256,105.8 	"/>
	<polygon id="XMLID_210_" class="st0" points="265.1,113.7 265.1,93.6 257.6,103.7 	"/>
	<path id="XMLID_209_" class="st1" d="M177.1,46.3v19.3c0,0.6,0.4,1,1,1s1-0.4,1-1V46.3c0-0.6-0.4-1-1-1S177.1,45.7,177.1,46.3z"/>
	<path id="XMLID_208_" class="st1" d="M20.2,116.7H1.8c-0.6,0-1,0.4-1,1s0.4,1,1,1h18.5c0.6,0,1-0.4,1-1S20.8,116.7,20.2,116.7z"/>
	<path id="XMLID_207_" class="st1" d="M120.7,116.7H29.6c-0.6,0-1,0.4-1,1s0.4,1,1,1h91.1c0.6,0,1-0.4,1-1S121.3,116.7,120.7,116.7z
		"/>
	<path id="XMLID_206_" class="st1" d="M172.5,44.2l0,22.3c0,0.6,0.4,1,1,1c0,0,0,0,0,0c0.6,0,1-0.4,1-1l0-22.2l18.3,0c0,0,0,0,0,0
		c0.6,0,1-0.4,1-1c0-0.6-0.4-1-1-1l-18.1,0c1.4-8.1,9.6-11.7,17.1-11.6c7.4,0.1,15.3,3.8,16.4,11.6l-8.3,0c0,0,0,0,0,0
		c-0.6,0-1,0.4-1,1c0,0.6,0.3,1,0.9,1l8.3,0v32.5c0,0.6,0.4,1,1,1s1-0.4,1-1V44.2c0-10.4-9.5-15.4-18.4-15.5
		c-8.5-0.1-17.8,4.1-19.1,13.6c-0.4,0.1-0.8,0.5-0.8,1C171.8,43.7,172.1,44,172.5,44.2z"/>
	<path id="XMLID_205_" class="st1" d="M194,115.7h-20.9v-11.9l8.5-5.3c0.5-0.3,0.6-0.9,0.3-1.4c-0.3-0.5-0.8-0.6-1.3-0.3l-7.5,4.6
		v-3.4c0,0,0,0,0,0v-3.6l4.4-2.8c0.5-0.3,0.6-0.9,0.3-1.4c-0.3-0.5-0.8-0.6-1.3-0.3l-3.4,2.1v-5.8c0-0.6-0.4-1-1-1s-1,0.4-1,1v7.6
		c0,0,0,0,0,0v2.4l-7.4-4.5c-0.5-0.3-1.1-0.1-1.4,0.3s-0.1,1.1,0.4,1.4l8.5,5.2v4.7c0,0,0,0,0,0v4.3c-6-0.4-13.2-4.5-14.4-9.5
		c-0.7-2.9-0.9-6.5,0.4-8c1-1.2,0.8-2.6,0.6-4.1c-0.2-1.5-0.4-3.2,0.4-5.2c2.7-6.6,5.2-7.9,12.4-9.1c3.8-0.6,5.9,0.2,8.3,2
		c2.8,2,4.3,4.1,4.4,6.1c0.1,2,1.1,3.4,1.9,4.6l0.1,0.1c0.3,0.4,0.6,0.9,0.9,1.4c1.9,3.1,1.6,7.3-0.7,14.5c-0.9,3.5-4.7,6.1-9.8,7
		c-0.5,0.1-0.9,0.6-0.8,1.1s0.6,0.9,1.1,0.8c5.9-1,10.3-4.2,11.4-8.4c2.6-7.8,2.7-12.4,0.5-16.1c-0.3-0.5-0.6-1-1-1.5l-0.1-0.1
		c-0.9-1.3-1.5-2.3-1.6-3.6c-0.2-2.6-1.9-5.2-5.2-7.6c-2.8-2.1-5.3-3.1-9.8-2.3c-7.6,1.3-10.8,3-13.9,10.3c-1,2.4-0.7,4.5-0.5,6.2
		c0.2,1.3,0.3,2.1-0.1,2.6c-2.4,2.8-1.2,8.7-0.9,9.8c0.7,2.9,3,5.5,6,7.5c-0.3,0-0.6,0.2-0.8,0.5c-1.2,2-3.4,3.5-5.5,3.8
		c-0.5,0.1-0.9,0.6-0.8,1.1c0.1,0.5,0.6,0.9,1.1,0.8c2.6-0.4,5.3-2.3,6.9-4.8c0.2-0.3,0.3-0.6,0.2-0.9c2.9,1.7,6.4,2.8,9.4,2.9v6.1
		h-18V108c0-0.6-0.4-1-1-1s-1,0.4-1,1v2.4c-3-0.5-5.7-2.5-6.3-4.4c-1.6-4.5-1.8-7-0.9-8.9c0.1-0.3,0.3-0.5,0.5-0.8
		c0.5-0.9,1.1-1.9,1.1-3.3c0-1.5,0.9-2.6,1.7-3.3c1.4-1.2,3.5-1.8,5.1-1.5c0.2,0,1.2,0.3,2.3,0.6c0.5,0.1,1.1-0.2,1.2-0.7
		c0.1-0.5-0.2-1.1-0.7-1.2c-0.7-0.2-2-0.5-2.4-0.6c-2.2-0.4-4.9,0.4-6.7,2c-1.5,1.3-2.4,3-2.4,4.8c0,0.8-0.4,1.4-0.8,2.2
		c-0.2,0.3-0.3,0.6-0.5,0.9c-1.2,2.4-1.1,5.5,0.7,10.4c0.9,2.8,5.2,5.3,8.2,5.8v3.3h-10.3c-0.6,0-1,0.4-1,1s0.4,1,1,1h11.4
		c0.1,0,0.2,0,0.3,0s0.2,0,0.3,0H194c0.6,0,1-0.4,1-1S194.6,115.7,194,115.7z"/>
	<path id="XMLID_204_" class="st1" d="M648.2,116.7h-31.9c-0.6,0-1,0.4-1,1s0.4,1,1,1h31.9c0.6,0,1-0.4,1-1S648.8,116.7,648.2,116.7
		z"/>
	<path id="XMLID_203_" class="st1" d="M600.6,116.7H377.4c-0.6,0-1,0.4-1,1s0.4,1,1,1h223.2c0.6,0,1-0.4,1-1
		S601.2,116.7,600.6,116.7z"/>
	<path class="st1" d="M253.1,68.7c0-0.6-0.4-1-1-1h-11c-0.6,0-1,0.4-1,1v9c0,0.6,0.4,1,1,1h11c0.6,0,1-0.4,1-1V68.7z M251.1,76.7h-9
		v-7h9V76.7z"/>
	<path class="st1" d="M297.5,91.7c0.3-0.2,0.6-0.5,0.6-0.8v-5.4c0-0.4-0.6-0.7-0.9-0.9l-24.1-10.9v-4.3l3,1.2c0.3,0.1,1,0.1,1.3-0.1
		c0.3-0.2,0.8-0.5,0.8-0.8v-5.9c0-0.3-0.4-0.7-0.7-0.8l-30.5-19.2c-0.3-0.2-0.8-0.2-1.1,0l-30.3,19.2c-0.3,0.2-0.4,0.5-0.4,0.8v5.9
		c0,0.3,0,0.7,0.3,0.8s0.6,0.2,0.9,0.1l2.8-1.2v4.3l-23.5,10.9c-0.4,0.2-0.5,0.5-0.5,0.9v5.4c0,0.3,0.1,0.6,0.3,0.8
		c0.3,0.2,0.6,0.2,0.9,0.1l0.8-0.2v24.6c0,0.6,0.3,1.5,0.9,1.5h27.9c0.1,0,0.2,0,0.3,0.1c0.4,0.3,1.1-0.1,1.4-0.1h0.1h17.6
		c0,0,0.5,0.9,1,0.9s1-0.9,1-0.9h17.6l0.1-0.1c0.3,0.4,1,0.7,1.4,0.3c0.1-0.1,0.2-0.2,0.3-0.2h27.9c0.6,0,0.7-0.9,0.7-1.5V91.6
		l1.2,0.3C296.6,92,297.2,91.9,297.5,91.7z M235.6,103.7l-7.5,10.1V93.6L235.6,103.7z M228.7,91.7h15.5l-7.8,10.4L228.7,91.7z
		 M229.1,115.7l7.4-9.9l7.4,9.9H229.1z M245.1,113.7l-7.5-10.1l7.5-10.1V113.7z M254.6,103.7l-7.5,10.1V93.6L254.6,103.7z
		 M248.2,91.7h15.5l-7.8,10.4L248.2,91.7z M248.6,115.7l7.4-9.9l7.4,9.9H248.6z M265.1,113.7l-7.5-10.1l7.5-10.1V113.7z M296.1,89.5
		l-1.1-0.3c-0.3-0.1-0.9-0.1-1.2,0.1c-0.3,0.2-0.7,0.5-0.7,0.8v25.5h-26V90.6c0,0,0-0.1,0-0.1c0,0,0,0,0,0c0,0,0,0,0,0
		c0-0.1,0-0.3,0-0.4v0.6c0,0-0.3,0-0.3,0c-0.1-1-0.3-0.6-0.4-0.6c-0.1,0-0.2-0.2-0.2-0.2c0,0,0-0.1,0-0.1c0,0,0,0,0,0c0,0,0,0,0,0
		c-0.1-0.1-0.3,0-0.4,0h-19.5c0,0,0,0,0,0c0,0,0,0,0,0h-19.5c-0.2,0-0.3-0.1-0.4,0c0,0,0,0,0,0c0,0,0,0,0,0c-0.1,0,0,0.1-0.1,0.1
		c-0.1,0.1-0.1,0.2-0.1,0.3v0.6H226c-0.1,0,0.1-0.4,0.1-0.2c0,0,0,0,0,0c0,0,0,0,0,0c0,0,0,0.1,0,0.1v25.1h-27V90.3
		c0-0.3-0.2-0.6-0.5-0.8c-0.3-0.2-0.5-0.2-0.8-0.1l-0.7,0.2v-3.4l23.5-10.9c0.4-0.2,0.5-0.5,0.5-0.9v-6.5c0-0.3-0.2-0.7-0.5-0.8
		c-0.3-0.2-0.5-0.2-0.8-0.1l-2.7,1.2v-3.9l29.5-18.6l29.5,18.6v3.9l-3.1-1.2c-0.3-0.1-0.9-0.1-1.2,0.1c-0.3,0.2-0.7,0.5-0.7,0.8v6.4
		c0,0.4,0.6,0.7,0.9,0.9l24.1,10.9V89.5z"/>
	<path class="st1" d="M366.2,116.7h-38l-15.7-37.4c-0.2-0.5-0.8-0.9-1.3-0.6c-0.5,0.2-0.7,0.7-0.5,1.3l2.8,6.7l-7.4,6.4V80.4
		c0-0.6-0.4-1-1-1s-1,0.4-1,1v13l-4.3-3.7c-0.4-0.4-1.1-0.3-1.4,0.1c-0.4,0.4-0.3,1,0.1,1.4l4.9,4.2l-7,6.1c-0.4,0.4-0.5,1-0.1,1.4
		c0.4,0.4,1,0.5,1.4,0.1l6.5-5.6v19.7c0,0.6,0.4,1,1,1s1-0.4,1-1V97.7l18.5,16c0.1,0.1,0.2,0.4,0.4,0.4l1,2.6H313c-0.6,0-1,0.4-1,1
		s0.4,1,1,1h14.4c0.1,0,0.1,0,0.2,0s0.1,0,0.2,0h38.4c0.6,0,1-0.4,1-1S366.7,116.7,366.2,116.7z M306.4,95.4l7.9-6.8l9,21.4
		L306.4,95.4z"/>
	<path id="XMLID_188_" class="st1" d="M297.7,79.1l-1.4,3.4c-0.2,0.5,0,1.1,0.5,1.3c0.1,0.1,0.3,0.1,0.4,0.1c0.4,0,0.8-0.2,0.9-0.6
		l1.4-3.4c0.2-0.5,0-1.1-0.5-1.3C298.5,78.4,297.9,78.6,297.7,79.1z"/>
	<g class="clouds1">
		<path id="XMLID_187_" class="st1" d="M262.2,25.7h4.4c0.6,0,1-0.4,1-1s-0.4-1-1-1h-4.4c-0.6,0-1,0.4-1,1S261.6,25.7,262.2,25.7z"
			/>
		<path id="XMLID_186_" class="st1" d="M264.1,41.7h-4.4c-0.6,0-1,0.4-1,1s0.4,1,1,1h4.4c0.6,0,1-0.4,1-1S264.6,41.7,264.1,41.7z"/>
		<path id="XMLID_185_" class="st1" d="M264.7,29.7c0,0.6,0.4,1,1,1h4.4c0.6,0,1-0.4,1-1s-0.4-1-1-1h-4.4
			C265.2,28.7,264.7,29.2,264.7,29.7z"/>
		<path id="XMLID_184_" class="st1" d="M255.2,30.7h4.4c0.6,0,1-0.4,1-1s-0.4-1-1-1h-4.4c-0.6,0-1,0.4-1,1S254.6,30.7,255.2,30.7z"
			/>
		<path id="XMLID_183_" class="st1" d="M268.3,35.7c0,0.6,0.4,1,1,1h4.4c0.6,0,1-0.4,1-1s-0.4-1-1-1h-4.4
			C268.8,34.7,268.3,35.2,268.3,35.7z"/>
		<path id="XMLID_182_" class="st1" d="M283.4,23.7h4.4c0.6,0,1-0.4,1-1s-0.4-1-1-1h-4.4c-0.6,0-1,0.4-1,1S282.8,23.7,283.4,23.7z"
			/>
		<path id="XMLID_181_" class="st1" d="M277.2,30.7h4.4c0.6,0,1-0.4,1-1s-0.4-1-1-1h-4.4c-0.6,0-1,0.4-1,1S276.7,30.7,277.2,30.7z"
			/>
	</g>
	<g class="spin">
		<path id="XMLID_180_" class="st0" d="M314.7,55l11.2,2.9c0.3-1.9,0.3-3.8,0-5.8L314.7,55z"/>
		<path id="XMLID_179_" class="st0" d="M308,75.8l-2.9-11.2l-2.9,11.2C304.2,76,306.1,76,308,75.8z"/>
		<path id="XMLID_178_" class="st0" d="M317.8,71.7c1.5-1.2,2.9-2.5,4.1-4.1l-9.9-5.9L317.8,71.7z"/>
		<circle id="XMLID_177_" class="st0" cx="305.1" cy="55" r="1.5"/>
		<path id="XMLID_176_" class="st0" d="M302.2,34.2l2.9,11.2l2.9-11.2C306.1,33.9,304.2,33.9,302.2,34.2z"/>
		<path id="XMLID_175_" class="st0" d="M290.3,69.8c0.7,0.7,1.4,1.3,2.2,1.9l5.9-9.9l-9.9,5.9C289,68.4,289.6,69.1,290.3,69.8z"/>
		<path id="XMLID_174_" class="st0" d="M288.4,42.3l9.9,5.9l-5.9-9.9C290.9,39.4,289.5,40.8,288.4,42.3z"/>
		<path id="XMLID_173_" class="st0" d="M320,40.1c-0.7-0.7-1.4-1.3-2.2-1.9l-5.9,9.9l9.9-5.9C321.3,41.5,320.6,40.8,320,40.1z"/>
		<path id="XMLID_172_" class="st0" d="M284.3,57.9l11.2-2.9l-11.2-2.9C284.1,54,284.1,55.9,284.3,57.9z"/>
		<path class="st1" d="M311.1,51l12.7-7.5c0.2-0.1,0.4-0.4,0.5-0.6c0.1-0.3,0-0.6-0.2-0.8c-0.8-1.2-1.7-2.3-2.8-3.3
			c-1-1-2.1-1.9-3.3-2.8c-0.2-0.2-0.5-0.2-0.8-0.1c-0.2,0-0.4,0.1-0.5,0.3c-0.1,0.1-0.1,0.1-0.2,0.2L309.1,49
			c-0.2,0.4-0.2,0.9,0.2,1.3c0.1,0.1,0.2,0.2,0.3,0.3c0.1,0.1,0.2,0.2,0.3,0.3C310.2,51.2,310.7,51.2,311.1,51z M317.8,38.2
			c0.8,0.6,1.5,1.2,2.2,1.9c0.7,0.7,1.3,1.4,1.9,2.2l-9.9,5.9L317.8,38.2z"/>
		<path class="st1" d="M292.2,36c-1.2,0.8-2.3,1.7-3.3,2.8c-1,1-1.9,2.1-2.8,3.3c-0.2,0.2-0.2,0.5-0.1,0.8c0.1,0.3,0.2,0.5,0.5,0.6
			l12.7,7.5c0.4,0.2,0.9,0.2,1.3-0.2c0.2-0.2,0.3-0.4,0.5-0.5c0.3-0.3,0.4-0.8,0.2-1.3l-7.5-12.7c-0.1-0.2-0.4-0.4-0.6-0.5
			S292.4,35.8,292.2,36z M298.3,48.2l-9.9-5.9c1.2-1.5,2.5-2.9,4.1-4.1L298.3,48.2z"/>
		<path class="st1" d="M304.7,48.7c0.2,0,0.5,0,0.7,0c0.5,0,0.9-0.3,1-0.7l3.7-14.3c0.1-0.3,0-0.6-0.1-0.8c-0.1-0.2-0.4-0.4-0.7-0.4
			c-2.9-0.5-5.8-0.5-8.6,0c-0.2,0-0.4,0.1-0.5,0.3c-0.1,0.1-0.1,0.1-0.1,0.2c-0.1,0.2-0.2,0.5-0.1,0.8l3.7,14.3
			C303.8,48.4,304.3,48.7,304.7,48.7z M302.2,34.2c1.9-0.3,3.8-0.3,5.8,0l-2.9,11.2L302.2,34.2z"/>
		<path class="st1" d="M302.7,57.4c1.3,1.3,3.5,1.3,4.9,0c1.3-1.3,1.3-3.5,0-4.9c-1.3-1.3-3.5-1.3-4.9,0
			C301.3,53.9,301.3,56.1,302.7,57.4z M306.2,53.9c0.6,0.6,0.6,1.5,0,2.1c-0.6,0.6-1.5,0.6-2.1,0c-0.6-0.6-0.6-1.5,0-2.1
			C304.7,53.4,305.6,53.4,306.2,53.9z"/>
		<path class="st1" d="M300.9,59.7c-0.1-0.1-0.2-0.2-0.3-0.3c-0.1-0.1-0.2-0.2-0.3-0.3c-0.3-0.4-0.8-0.4-1.3-0.2l-12.7,7.5
			c-0.1,0-0.1,0.1-0.2,0.2c-0.1,0.1-0.2,0.3-0.3,0.5c-0.1,0.3,0,0.6,0.1,0.8c0.8,1.2,1.7,2.3,2.8,3.3c1,1,2.1,1.9,3.3,2.8
			c0.2,0.2,0.5,0.2,0.8,0.1c0.3-0.1,0.5-0.2,0.6-0.5l7.5-12.7C301.4,60.5,301.3,60,300.9,59.7z M292.4,71.7
			c-0.8-0.6-1.5-1.2-2.2-1.9c-0.7-0.7-1.3-1.4-1.9-2.2l9.9-5.9L292.4,71.7z"/>
		<path class="st1" d="M327.7,50.7c-0.1-0.3-0.2-0.5-0.4-0.7c-0.2-0.1-0.5-0.2-0.8-0.1l-14.3,3.7c-0.2,0-0.3,0.1-0.5,0.3
			c-0.2,0.2-0.3,0.5-0.3,0.8c0,0.2,0,0.5,0,0.7c0,0.5,0.3,0.9,0.7,1l14.3,3.7c0.3,0.1,0.6,0,0.8-0.1c0.2-0.1,0.4-0.4,0.4-0.7
			C328.2,56.4,328.2,53.5,327.7,50.7z M325.9,57.9L314.7,55l11.2-2.9C326.2,54,326.2,55.9,325.9,57.9z"/>
		<path class="st1" d="M305.5,61.3c-0.2,0-0.5,0-0.7,0c-0.3,0-0.6,0.1-0.8,0.3c-0.1,0.1-0.2,0.3-0.3,0.5L300,76.3
			c-0.1,0.3,0,0.6,0.1,0.8c0.1,0.2,0.4,0.4,0.7,0.4c2.9,0.5,5.8,0.5,8.6,0c0.3-0.1,0.5-0.2,0.7-0.4c0.1-0.2,0.2-0.5,0.1-0.8
			L306.5,62C306.4,61.6,306,61.2,305.5,61.3z M308,75.8c-1.9,0.3-3.8,0.3-5.8,0l2.9-11.2L308,75.8z"/>
		<path class="st1" d="M283,50c-0.1,0-0.1,0.1-0.2,0.1c-0.1,0.1-0.2,0.3-0.3,0.5c-0.5,2.9-0.5,5.8,0,8.6c0.1,0.3,0.2,0.5,0.4,0.7
			c0.2,0.1,0.5,0.2,0.8,0.1l14.3-3.7c0.5-0.1,0.8-0.6,0.7-1c0-0.2,0-0.5,0-0.7c0-0.5-0.3-0.9-0.7-1l-14.3-3.7
			C283.5,49.8,283.2,49.9,283,50z M284.3,57.9c-0.3-1.9-0.3-3.8,0-5.8l11.2,2.9L284.3,57.9z"/>
		<path class="st1" d="M311.1,59c-0.4-0.2-0.9-0.2-1.2,0.2c0,0,0,0,0,0c-0.2,0.2-0.3,0.4-0.5,0.5c-0.4,0.3-0.4,0.8-0.2,1.3l7.5,12.7
			c0.1,0.2,0.4,0.4,0.6,0.5c0.3,0.1,0.6,0,0.8-0.2c2.4-1.6,4.5-3.7,6.1-6.1c0.2-0.2,0.2-0.5,0.1-0.8c-0.1-0.3-0.2-0.5-0.5-0.6
			L311.1,59z M317.8,71.7l-5.9-9.9l9.9,5.9C320.7,69.2,319.3,70.6,317.8,71.7z"/>
	</g>
	<g class="tractor">
		<g>
			<path id="XMLID_153_" class="st1" d="M115,96.3c-0.6,0-1-0.4-1-1v-2.8c0-0.6,0.4-1,1-1s1,0.4,1,1v2.8
				C116,95.8,115.6,96.3,115,96.3z"/>
		</g>
		<g>
			<path id="XMLID_152_" class="st1" d="M101,92.4c-0.6,0-1-0.4-1-1v-9.1c0-0.6,0.4-1,1-1h14c0.6,0,1,0.4,1,1s-0.4,1-1,1h-13v8.1
				C102,92,101.6,92.4,101,92.4z"/>
		</g>
		<g>
			<path id="XMLID_151_" class="st1" d="M131.1,100.8c-0.6,0-1-0.4-1-1v-5.1c0-0.6,0.4-1,1-1s1,0.4,1,1v5.1
				C132.1,100.4,131.7,100.8,131.1,100.8z"/>
		</g>
		<g>
			<path id="XMLID_150_" class="st1" d="M128.4,100.8c-0.6,0-1-0.4-1-1v-5.1c0-0.6,0.4-1,1-1c0.6,0,1,0.4,1,1v5.1
				C129.4,100.4,128.9,100.8,128.4,100.8z"/>
		</g>
		<g>
			<path id="XMLID_149_" class="st1" d="M125.6,100.8c-0.6,0-1-0.4-1-1v-5.1c0-0.6,0.4-1,1-1s1,0.4,1,1v5.1
				C126.6,100.4,126.1,100.8,125.6,100.8z"/>
		</g>
		<g>
			<path id="XMLID_148_" class="st1" d="M122.9,93.5c-0.6,0-1-0.4-1-1v-8c0-0.1,0-0.2,0-0.3c0.3-0.8,1-1.9,2.9-1.9c0.6,0,1,0.4,1,1
				s-0.4,1-1,1c-0.7,0-0.9,0.2-1,0.3v7.8C123.9,93,123.4,93.5,122.9,93.5z"/>
		</g>
		<g>
			<path id="XMLID_147_" class="st1" d="M115.8,106.4c-0.5,0-1-0.4-1-1c-0.4-7.3-6.4-13-13.7-13c-2,0-4,0.4-5.8,1.3l0.9,1.9
				c0.2,0.5,0,1.1-0.5,1.3c-0.5,0.2-1.1,0-1.3-0.5L93,93.7c-0.2-0.5,0-1,0.4-1.3c2.3-1.3,5-2,7.6-2c8.4,0,15.3,6.6,15.7,14.9
				C116.8,105.9,116.4,106.4,115.8,106.4C115.8,106.4,115.8,106.4,115.8,106.4z"/>
		</g>
		<g>
			<path id="XMLID_146_" class="st1" d="M123.6,106.4H113c-0.6,0-1-0.4-1-1s0.4-1,1-1h10.6c0.6,0,1,0.4,1,1S124.1,106.4,123.6,106.4
				z"/>
		</g>
		<g>
			<path id="XMLID_145_" class="st1" d="M134.9,105.3c-0.6,0-1-0.4-1-1V93.5l-18.9,0c0,0,0,0,0,0c-0.3,0-0.5-0.1-0.7-0.3
				c-0.2-0.2-0.3-0.4-0.3-0.7l0-11.9H98.4v11.5c0,0.6-0.4,1-1,1s-1-0.4-1-1V79.5c0-0.6,0.4-1,1-1H115c0.6,0,1,0.4,1,1l0,11.9l18.9,0
				c0,0,0,0,0,0c0.3,0,0.5,0.1,0.7,0.3c0.2,0.2,0.3,0.4,0.3,0.7v11.8C135.9,104.8,135.5,105.3,134.9,105.3z"/>
		</g>
		<g>
			<path class="st1" d="M129.6,113c-2.2,0-3.9-1.8-3.9-3.9s1.8-3.9,3.9-3.9c2.2,0,3.9,1.8,3.9,3.9S131.7,113,129.6,113z
				 M129.6,107.1c-1.1,0-1.9,0.9-1.9,1.9s0.9,1.9,1.9,1.9c1.1,0,1.9-0.9,1.9-1.9S130.6,107.1,129.6,107.1z"/>
		</g>
		<g>
			<path class="st1" d="M129.6,117.1c-4.5,0-8.1-3.6-8.1-8.1s3.6-8.1,8.1-8.1c4.5,0,8.1,3.6,8.1,8.1S134,117.1,129.6,117.1z
				 M129.6,103c-3.4,0-6.1,2.7-6.1,6.1s2.7,6.1,6.1,6.1c3.4,0,6.1-2.7,6.1-6.1S132.9,103,129.6,103z"/>
		</g>
		<g>
			<path class="st1" d="M101.1,111.3c-2.8,0-5.1-2.3-5.1-5.1c0-2.8,2.3-5.1,5.1-5.1s5.1,2.3,5.1,5.1
				C106.2,109,103.9,111.3,101.1,111.3z M101.1,103.1c-1.7,0-3.1,1.4-3.1,3.1c0,1.7,1.4,3.1,3.1,3.1s3.1-1.4,3.1-3.1
				C104.2,104.4,102.8,103.1,101.1,103.1z"/>
		</g>
		<g>
			<path class="st1" d="M101.1,117.1c-6.1,0-11-4.9-11-11c0-6.1,4.9-11,11-11c6.1,0,11,4.9,11,11C112,112.2,107.1,117.1,101.1,117.1
				z M101.1,97.2c-5,0-9,4-9,9c0,5,4,9,9,9c5,0,9-4,9-9C110,101.2,106,97.2,101.1,97.2z"/>
		</g>
	</g>
	<path id="XMLID_136_" class="st2" d="M352.9,115.7l0-7.9c0.8,0,1.7,0.1,5.2-0.6"/>
	<path id="XMLID_135_" class="st2" d="M354.5,80.5c-2.5-0.2-5.7-1.5-10.1,0.9c-0.8,0.4-1.2,0.9-2.1,1.9c-2.1,2.2-4.5,5.4-3.8,8.7
		c0.3,1.6-0.7,1.4-1.1,3.4c-0.1,0.5,0,1.3,0.2,2.1c1.7,6.4,3.1,10,10.9,10l-0.4,8"/>
	<path id="XMLID_134_" class="st2" d="M369.5,115.6l0-7.7c2.8,0,7.5,0,8.6-2.8c0.3-0.8,0.8-1.2,2.1-2.2c2.3-1.8,2.5-3.1,3.2-5.7
		c0.2-0.9,0.3-1.7,0.2-2.3c-0.4-2.3,0.1-2,0.4-3.8c0.8-3.7-1.1-6.5-3.4-9c-1.1-1.1-1.6-1.3-2.3-2c-0.2-0.2-0.4-0.6-1.1-1.7
		c-5.9-4.6-12.8-6.6-18.7-2c-0.7,1.1-0.9,1.5-1.1,1.7c-0.7,0.7-1.3,0.9-2.3,2c-2.3,2.4-4.2,7.3-3.4,10.9c0.3,1.8-0.7,1.5-1.2,3.8
		c-0.1,0.6,0,1.4,0.2,2.3c0.7,2.6,0.8,3.9,3.2,5.7c1.2,0.9,1.8,1.4,2.1,2.2c1,2.9,6.4,2.8,9.2,2.8l0.3,0.3l-0.8,7.4"/>
	<line id="XMLID_133_" class="st2" x1="464.6" y1="92.4" x2="510.5" y2="92.4"/>
	<polyline id="XMLID_132_" class="st2" points="403.4,27.1 419,38.8 419,58 	"/>
	<polyline id="XMLID_131_" class="st2" points="375,44 389.1,56.8 389.1,115.9 	"/>
	<polygon id="XMLID_130_" class="st2" points="427.7,99.2 439.8,99.2 439.8,108.3 427.7,108.3 427.7,99.2 	"/>
	<polygon id="XMLID_129_" class="st2" points="492.9,70 482.2,70 482.2,80.8 492.9,80.8 492.9,70 	"/>
	<polyline id="XMLID_128_" class="st2" points="522.9,115.8 522.9,88.1 528.8,88.1 521.3,64.3 487.6,49.6 453.8,64.3 446.3,88.1 
		452.2,88.1 452.2,115.6 	"/>
	<polyline id="XMLID_127_" class="st2" points="468.4,115.6 468.4,97.7 506.7,97.7 506.7,115.6 	"/>
	<line id="XMLID_126_" class="st2" x1="416.4" y1="115.6" x2="416.4" y2="88.1"/>
	<polyline id="XMLID_125_" class="st2" points="442.6,88.1 413.2,88.1 413.2,64.3 451.2,64.3 	"/>
	<path id="XMLID_124_" class="st2" d="M383.4,44.5v-8.9c0-0.3,17.8-13.7,19.6-15c0.7-0.6,1.5-0.6,2.2,0c1.8,1.4,19.6,14.7,19.6,15
		v28.8"/>
	<path id="XMLID_123_" class="st2" d="M357.8,72.9V54c0-0.3,15.7-13.6,17.3-15c0.6-0.6,1.3-0.6,1.9,0c1.6,1.4,17.3,14.7,17.3,15v62"
		/>
	<line id="XMLID_122_" class="st2" x1="469.1" y1="114.4" x2="506.7" y2="97.7"/>
	<line id="XMLID_121_" class="st2" x1="506.7" y1="114.4" x2="469.1" y2="97.7"/>
	<g>
		<path class="st1" d="M493.1,27.3c-5,0-9-4.1-9-9s4.1-9,9-9s9,4.1,9,9S498.1,27.3,493.1,27.3z M493.1,11.3c-3.9,0-7,3.2-7,7
			s3.2,7,7,7s7-3.2,7-7S497,11.3,493.1,11.3z"/>
	</g>
	<g>
		<path id="XMLID_118_" class="st1" d="M453.3,38.7c-0.1,0-0.1,0-0.2,0c-0.5-0.1-0.9-0.6-0.8-1.2c0.8-4.6,4.4-8.2,9-8.9
			c1.1-4.3,5.1-7.4,9.6-7.4c2.7,0,5.2,1,7,2.9c1.2-1.5,2.5-2.9,4.2-3.9c0.5-0.3,1.1-0.2,1.4,0.3c0.3,0.5,0.2,1.1-0.3,1.4
			c-1.7,1.1-3.2,2.7-4.3,4.4c-0.2,0.3-0.5,0.4-0.8,0.5c-0.3,0-0.6-0.1-0.8-0.4c-1.5-2-3.8-3.1-6.3-3.1c-3.8,0-7.1,2.7-7.8,6.5
			c-0.1,0.4-0.4,0.8-0.9,0.8c-4,0.4-7.3,3.4-7.9,7.4C454.2,38.4,453.8,38.7,453.3,38.7z"/>
	</g>
	<g>
		<path id="XMLID_117_" class="st1" d="M542,38.8c-0.6,0-1-0.4-1-1c0-2.3-1.9-4.1-4.1-4.1c-0.9,0-1.7,0.3-2.4,0.8
			c-0.3,0.2-0.6,0.2-0.9,0.1c-0.3-0.1-0.5-0.3-0.6-0.6c-1.2-3.7-4.6-6.2-8.5-6.2c-0.5,0-1.1,0-1.6,0.1c-0.3,0.1-0.5,0-0.8-0.2
			c-0.2-0.2-0.4-0.4-0.4-0.7c-0.6-4.5-4.4-7.8-8.9-7.8c-3.5,0-6.5,1.9-8.1,5c-0.2,0.5-0.8,0.7-1.3,0.5c-0.5-0.2-0.7-0.8-0.5-1.3
			c1.9-3.8,5.6-6.2,9.9-6.2c5.2,0,9.6,3.6,10.7,8.6c0.3,0,0.6,0,1,0c4.3,0,8.2,2.5,10,6.4c0.8-0.4,1.6-0.5,2.5-0.5
			c3.4,0,6.1,2.7,6.1,6.1C543,38.4,542.5,38.8,542,38.8z"/>
	</g>
	<g>
		<path id="XMLID_116_" class="st1" d="M519.1,18.2c-0.1,0-0.2,0-0.4-0.1c-0.5-0.2-0.8-0.8-0.6-1.3c1.5-3.8,5.1-6.3,9.3-6.3
			c2.7,0,5.2,1,7,2.9c3.2-4.3,8.2-6.8,13.6-6.8c4.9,0,9.6,2.1,12.9,5.9c0.4,0.4,0.3,1-0.1,1.4c-0.4,0.4-1,0.3-1.4-0.1
			c-2.9-3.3-7-5.2-11.4-5.2c-5.2,0-9.9,2.6-12.7,6.9c-0.2,0.3-0.5,0.4-0.8,0.5c-0.3,0-0.6-0.1-0.8-0.4c-1.5-2-3.8-3.1-6.3-3.1
			c-3.3,0-6.2,2-7.4,5C519.9,18,519.5,18.2,519.1,18.2z"/>
	</g>
	<path id="XMLID_115_" class="st2" d="M67.5,53.5c0.8-4.4,4.4-7.8,8.8-8.2c0.8-4.1,4.4-7.3,8.8-7.3c2.9,0,5.5,1.4,7.1,3.5
		c1.2-1.9,2.8-3.5,4.6-4.7"/>
	<path id="XMLID_114_" class="st2" d="M94.7,39.7c1.6-3.3,5-5.6,9-5.6c5.1,0,9.3,3.8,9.9,8.7c0.6-0.1,1.2-0.2,1.8-0.2
		c4.4,0,8.2,2.9,9.5,6.9c0.9-0.6,1.9-1,3-1c2.8,0,5.1,2.3,5.1,5.1"/>
	<path id="XMLID_113_" class="st2" d="M110.2,33c1.3-3.3,4.5-5.7,8.3-5.7c2.9,0,5.5,1.4,7.1,3.5c2.9-4.5,7.8-7.4,13.5-7.4
		c4.8,0,9.2,2.1,12.1,5.5"/>
	<g>
		<path id="XMLID_112_" class="st1" d="M479.6,18.3h-5.1c-0.6,0-1-0.4-1-1s0.4-1,1-1h5.1c0.6,0,1,0.4,1,1S480.1,18.3,479.6,18.3z"/>
	</g>
	<g>
		<path id="XMLID_111_" class="st1" d="M480.6,13.1h-8.1c-0.6,0-1-0.4-1-1s0.4-1,1-1h8.1c0.6,0,1,0.4,1,1S481.2,13.1,480.6,13.1z"/>
	</g>
	<g>
		<path id="XMLID_110_" class="st1" d="M471.3,13.1h-3.1c-0.6,0-1-0.4-1-1s0.4-1,1-1h3.1c0.6,0,1,0.4,1,1S471.8,13.1,471.3,13.1z"/>
	</g>
	<g>
		<path id="XMLID_109_" class="st1" d="M485.6,7.3h-6.1c-0.6,0-1-0.4-1-1s0.4-1,1-1h6.1c0.6,0,1,0.4,1,1S486.2,7.3,485.6,7.3z"/>
	</g>
	<g>
		<path id="XMLID_108_" class="st1" d="M510.5,14.5h-6.1c-0.6,0-1-0.4-1-1s0.4-1,1-1h6.1c0.6,0,1,0.4,1,1S511.1,14.5,510.5,14.5z"/>
	</g>
	<g>
		<path id="XMLID_107_" class="st1" d="M506.5,9.6h-3.7c-0.6,0-1-0.4-1-1s0.4-1,1-1h3.7c0.6,0,1,0.4,1,1S507,9.6,506.5,9.6z"/>
	</g>
	<g>
		<path id="XMLID_106_" class="st1" d="M499.1,5.9h-4.2c-0.6,0-1-0.4-1-1s0.4-1,1-1h4.2c0.6,0,1,0.4,1,1S499.7,5.9,499.1,5.9z"/>
	</g>
	<g>
		<path id="XMLID_105_" class="st1" d="M491.2,3.3h-3.8c-0.6,0-1-0.4-1-1s0.4-1,1-1h3.8c0.6,0,1,0.4,1,1S491.8,3.3,491.2,3.3z"/>
	</g>
</g>
<g id="XMLID_364_">
</g>
<g id="XMLID_365_">
</g>
<g id="XMLID_366_">
</g>
<g id="XMLID_367_">
</g>
<g id="XMLID_368_">
</g>
<g id="XMLID_369_">
</g>
</svg>
