<?xml version="1.0" encoding="utf-8"?>
<!-- Generator: Adobe Illustrator 19.0.0, SVG Export Plug-In . SVG Version: 6.00 Build 0)  -->
<svg version="1.1" id="Layer_1" xmlns="http://www.w3.org/2000/svg" xmlns:xlink="http://www.w3.org/1999/xlink" x="0px" y="0px"
	 viewBox="0 0 110 70" style="enable-background:new 0 0 110 70;" xml:space="preserve">
<style type="text/css">
	.st0{fill:#026937;}
	.st1{fill:#82BC00;}
	.st2{fill:#78BD43;}
</style>
<g id="XMLID_54_">
	<g id="XMLID_55_">
		<g id="XMLID_85_">
			<path id="XMLID_98_" class="st0" d="M14.4,39c0-1.7-0.7-2.6-2.7-2.6c-1.2,0-2.7,0.3-2.7,0.3v14.8c0,0-6,0-6-2.7V32.1
				c0,0,1.6,0.9,3.9,0.9c1.7,0,3.4-0.7,5.3-0.7c4,0,8.2,1.3,8.2,6.3v13.1c0,0-6-0.1-6-2.7V39z"/>
			<path id="XMLID_95_" class="st0" d="M24.2,40.6c-1.3-1.7-1.6-3-1.6-4.1c0-3.6,5-4.3,7.5-4.3c5.8,0,8.8,2.2,8.8,6.4v13.2
				c-1-0.5-2.1-0.6-3-0.6c-1.9,0-3.9,0.6-6,0.6c-4,0-7.8-1.3-7.8-5.8c0-6.5,9.2-5.3,10.9-7.7c0-0.9-0.6-1.8-2.9-1.8
				C27.3,36.4,24.2,37.2,24.2,40.6z M33,42.5c-1,1.5-5,0.9-5,3.2c0,1.7,1.2,2,2.4,2c1.3,0,2.6-0.4,2.6-0.4V42.5z"/>
			<path id="XMLID_93_" class="st0" d="M40.5,29.8c0,0,6-0.4,6,2.8v1.1h7.1c0,0,0,4.3-3.3,4.3h-3.8v6.1c0,2.2,0.5,3.4,3.1,3.4
				c1.7,0,3.9-0.5,3.9-3.7c1.2,1.1,1.9,2.2,1.9,3.5c0,2-1.4,4.4-6.7,4.4c-5.3,0-8.1-2.5-8.1-6.7V29.8z"/>
			<path id="XMLID_91_" class="st0" d="M62.6,44.9c0,1.7,0.7,2.6,2.8,2.6c1.2,0,2.7-0.4,2.7-0.4V32.4c0,0,6,0,6,2.7v16.8
				c0,0-1.6-0.9-3.8-0.9c-1.8,0-3.5,0.7-5.3,0.7c-4,0-8.2-1.3-8.2-6.3V32.4c0,0,6,0.1,6,2.7V44.9z"/>
			<path id="XMLID_89_" class="st0" d="M75.7,48.8V32.1c1.3,0.6,2.2,0.9,3.1,0.9c1.6,0,3.4-0.7,5.7-0.7c2.5,0,5.2,0.9,5.2,3.7
				c0,2.5-2.2,4.2-2.2,4.2c0-3.3-3.3-3.9-5.9-3.3v14.8C81.7,51.6,75.7,51.6,75.7,48.8z"/>
			<path id="XMLID_86_" class="st0" d="M92.3,40.6c-1.3-1.7-1.6-3-1.6-4.1c0-3.6,5-4.3,7.5-4.3c5.8,0,8.8,2.2,8.8,6.4v13.2
				c-1-0.5-2.1-0.6-3-0.6c-1.9,0-3.9,0.6-6,0.6c-4,0-7.8-1.3-7.8-5.8c0-6.5,9.2-5.3,10.9-7.7c0-0.9-0.6-1.8-2.9-1.8
				C95.4,36.4,92.3,37.2,92.3,40.6z M101.2,42.5c-1,1.5-5,0.9-5,3.2c0,1.7,1.2,2,2.4,2c1.3,0,2.6-0.4,2.6-0.4V42.5z"/>
		</g>
		<g id="XMLID_64_">
			<path id="XMLID_83_" class="st1" d="M29.4,62.1c0,1.3-1.6,2-3.5,2c-2.4,0-3.9-1.1-3.9-3v-3.5c0-1.9,1.5-3,3.9-3
				c1.5,0,3.3,0.6,3.3,2c0,0.4-0.2,1-0.6,1.5c0-1.4-1.2-2-2.4-2c-1.5,0-2.3,0.5-2.3,1.9v2.7c0,1.3,0.7,1.9,2.2,1.9
				c1.6,0,2.8-0.7,2.8-1.9C29.3,61.2,29.4,61.7,29.4,62.1z"/>
			<path id="XMLID_81_" class="st1" d="M33.1,56.4V64c0,0-1.9,0-1.9-1v-8.3c0.5,0.2,0.9,0.3,1.2,0.3c0.8,0,1.5-0.4,2.5-0.4
				c1.3,0,2.3,0.5,2.3,1.6c0,0.7-0.4,1.2-0.7,1.5c0-1.1-0.9-1.5-1.9-1.5C33.8,56.1,33.1,56.4,33.1,56.4z"/>
			<path id="XMLID_78_" class="st1" d="M46.7,61.1c0,1.9-1.3,3-4.1,3c-2.8,0-4.1-1.1-4.1-3v-3.5c0-1.9,1.3-3,4.1-3
				c2.8,0,4.1,1.1,4.1,3V61.1z M44.9,57.8c0-1.2-0.4-1.8-2.2-1.8c-1.8,0-2.2,0.7-2.2,1.8v3c0,1.2,0.4,1.8,2.2,1.8
				c1.8,0,2.2-0.7,2.2-1.8V57.8z"/>
			<path id="XMLID_75_" class="st1" d="M50.4,67.1v1.2c-0.1,0-1.9,0.1-1.9-1.2V54.6c0.4,0.2,0.8,0.3,1.2,0.3c0.8,0,1.6-0.3,2.5-0.3
				c2.5,0,3.9,1.1,3.9,3v3.6c0,1.8-1.6,3-3.4,3c-1.8,0-2.5-0.8-2.5-0.8s0.2,0.5,0.2,1.3V67.1z M50.4,61c0,1,1.1,1.6,2.2,1.6
				c1,0,1.7-0.5,1.7-1.8v-3c0-1.2-0.5-1.8-2.2-1.8c-1.1,0-1.7,0.3-1.7,0.3V61z"/>
			<path id="XMLID_73_" class="st1" d="M65.6,62.1c0,1.3-1.6,2-3.5,2c-2.4,0-3.9-1.1-3.9-3v-3.5c0-1.9,1.5-3,3.9-3
				c1.5,0,3.3,0.6,3.3,2c0,0.4-0.2,1-0.6,1.5c0-1.4-1.2-2-2.4-2c-1.5,0-2.3,0.5-2.3,1.9v2.7c0,1.3,0.7,1.9,2.2,1.9
				c1.6,0,2.8-0.7,2.8-1.9C65.4,61.2,65.6,61.7,65.6,62.1z"/>
			<path id="XMLID_70_" class="st1" d="M72.6,57.5c0-0.8-0.4-1.4-1.9-1.4c-1.6,0-2.8,0.6-2.8,2c-0.4-0.6-0.6-1.1-0.6-1.5
				c0-1.4,1.8-1.9,3.4-1.9c2.5,0,3.8,1.1,3.8,3V64c-0.4-0.2-0.9-0.3-1.3-0.3c-0.9,0-1.7,0.3-2.7,0.3c-1.7,0-3.5-0.7-3.5-2.7
				C67,58,71.9,59,72.6,57.5z M72.7,59.1c-0.4,1.1-3.8,0.4-3.8,2.3c0,0.8,0.6,1.3,1.9,1.3c1.1,0,1.9-0.4,1.9-0.4V59.1z"/>
			<path id="XMLID_68_" class="st1" d="M77.9,56.4V64c0,0-1.9,0-1.9-1v-8.3c0.5,0.2,0.9,0.3,1.2,0.3c0.8,0,1.5-0.4,2.5-0.4
				c1.3,0,2.3,0.5,2.3,1.6c0,0.7-0.4,1.2-0.7,1.5c0-1.1-0.9-1.5-1.9-1.5C78.6,56.1,77.9,56.4,77.9,56.4z"/>
			<path id="XMLID_65_" class="st1" d="M90.1,62.1c0,1.3-1.6,2-3.5,2c-2.5,0-4-1.1-4-3v-3.5c0-1.9,1.3-3,3.7-3
				c2.4,0,3.7,1.1,3.7,2.8c0,1.5-1,2.8-3.7,2.8c-0.6,0-1.3-0.1-1.8-0.4v1c0,1.2,0.6,1.8,2.1,1.8c1.7,0,3-0.7,3-1.9
				C90,61.2,90.1,61.7,90.1,62.1z M84.5,58.4c0.1,0,1,0.3,1.6,0.3c1.5,0,2-0.5,2-1.3c0-0.8-0.5-1.4-1.8-1.4c-1.4,0-1.8,0.7-1.8,1.8
				V58.4z"/>
		</g>
		<g id="XMLID_56_">
			<path id="XMLID_63_" class="st2" d="M84.6,23.3l0.3,0.1C84.9,23.4,84.8,23.4,84.6,23.3C84.6,23.3,84.6,23.3,84.6,23.3"/>
			<path id="XMLID_60_" class="st1" d="M85.1,27.6C76.3,23.9,71.6,12.1,68,8.1C64.3,4,60.8,1.7,55.6,1.7c-1,0-2.1,0.1-3.3,0.3
				c-6.8,1.1-11.6,5.5-11.6,5.5s1.7,3.3,3.8,5.5c3,3.2,3.8,4.7,8.7,8c4.9,3.3,9.5,6.5,24.2,8.4c6.4,0.8,11.8,0.2,16-0.7
				C90.8,28.9,88,28.8,85.1,27.6z M84.5,28.5C84.5,28.5,84.5,28.5,84.5,28.5c-0.2,0-0.3-0.1-0.5-0.1c-3-0.7-12.6-2.5-19-6.2
				C59,18.8,53.4,10.7,53.4,10.7s6.8,8.1,13.3,11.4C74.3,26,84,28.4,84.5,28.5c0.1,0,0.2,0,0.3,0.1L84.5,28.5z"/>
			<path id="XMLID_57_" class="st0" d="M102.5,19.3c-2.8-1.4-4.9-1-7.4,0.5c-2.1,1.2-5.6,5.5-9.8,5.9c-1.4,0.1-2.6-0.2-3.6-0.6
				c1.6,0.9,3.8,1.9,6.6,2.4c6.4,1.2,8.8,0.5,11.3-0.3c2.5-0.7,3-1.3,4.7-2.2c1.2-0.7,2.3-1.8,2.3-1.8S105.2,20.7,102.5,19.3z
				 M100.4,24C100.4,24,100.3,24,100.4,24c-0.1,0-0.1,0.1-0.2,0.1c-1.3,0.6-5.4,2.5-8.8,2.9c-3.2,0.4-7.6-1.1-7.6-1.1
				s4.8,1.2,8.1,0.6C95.8,25.8,100.1,24.1,100.4,24C100.4,23.9,100.4,23.9,100.4,24L100.4,24z"/>
		</g>
	</g>
</g>
<g id="XMLID_190_">
</g>
<g id="XMLID_191_">
</g>
<g id="XMLID_192_">
</g>
<g id="XMLID_193_">
</g>
<g id="XMLID_194_">
</g>
<g id="XMLID_195_">
</g>
</svg>
