<?xml version="1.0" encoding="utf-8"?>
<!-- Generator: Adobe Illustrator 19.0.0, SVG Export Plug-In . SVG Version: 6.00 Build 0)  -->
<svg version="1.1" id="Layer_1" xmlns="http://www.w3.org/2000/svg" xmlns:xlink="http://www.w3.org/1999/xlink" x="0px" y="0px"
	 viewBox="0 0 40 40" style="enable-background:new 0 0 40 40;" xml:space="preserve">
<style type="text/css">
	.st0{fill:#82BC00;}
</style>
<g>
	<g id="XMLID_83_">
		<path id="XMLID_84_" class="st0" d="M11.2,33.7c-1.4,0-2.7-0.2-3.7-0.7c-1-0.5-1.9-1.1-2.6-1.9c-0.7-0.8-1.2-1.8-1.5-2.8
			c-0.3-1.1-0.5-2.2-0.5-3.4c0-2.4,0.4-4.6,1.1-6.6c0.7-2,1.7-3.7,2.9-5.2C8,11.4,9.3,10.1,10.7,9c1.4-1.1,2.8-2,4.2-2.6l1,1.3
			c-2,1.9-3.6,3.5-4.7,5c-1.2,1.5-1.8,2.7-1.8,3.6c0,0.6,0.2,1.1,0.7,1.4c0.5,0.4,1.1,0.7,1.8,1c0.7,0.3,1.4,0.6,2.2,0.9
			c0.8,0.3,1.5,0.8,2.1,1.3c0.6,0.6,1.2,1.2,1.6,2.1c0.4,0.8,0.6,1.9,0.6,3.2c0,0.8-0.2,1.6-0.5,2.5c-0.3,0.9-0.8,1.7-1.4,2.4
			c-0.6,0.7-1.4,1.4-2.3,1.9C13.5,33.4,12.4,33.7,11.2,33.7z M29.8,33.7c-1.4,0-2.6-0.2-3.7-0.7c-1-0.5-1.9-1.1-2.6-1.9
			c-0.7-0.8-1.2-1.8-1.5-2.8c-0.3-1.1-0.5-2.2-0.5-3.4c0-2.4,0.4-4.6,1.1-6.6c0.7-2,1.7-3.7,2.9-5.2c1.2-1.5,2.5-2.8,3.9-3.9
			c1.4-1.1,2.8-2,4.2-2.6l1,1.3c-2,1.9-3.6,3.5-4.7,5c-1.2,1.5-1.8,2.7-1.8,3.6c0,0.6,0.2,1.1,0.7,1.4c0.5,0.4,1.1,0.7,1.8,1
			c0.7,0.3,1.4,0.6,2.2,0.9c0.8,0.3,1.5,0.8,2.1,1.3c0.6,0.6,1.2,1.2,1.6,2.1c0.4,0.8,0.6,1.9,0.6,3.2c0,0.8-0.2,1.6-0.5,2.5
			c-0.3,0.9-0.8,1.7-1.4,2.4c-0.6,0.7-1.4,1.4-2.3,1.9C32,33.4,31,33.7,29.8,33.7z"/>
	</g>
</g>
<g id="XMLID_136_">
</g>
<g id="XMLID_137_">
</g>
<g id="XMLID_138_">
</g>
<g id="XMLID_139_">
</g>
<g id="XMLID_140_">
</g>
<g id="XMLID_141_">
</g>
</svg>
